<svg xmlns="http://www.w3.org/2000/svg" viewBox="0 0 28 28" width="56" height="56">
  <rect width="28" height="28" fill="none"/>
  <!-- 天将 - 精英 -->
  <!-- 头盔 - 华丽 -->
  <rect x="8" y="5" width="12" height="2" fill="#4169E1"/>
  <rect x="7" y="6" width="1" height="1" fill="#4682B4"/>
  <rect x="20" y="6" width="1" height="1" fill="#4682B4"/>
  <rect x="12" y="4" width="4" height="1" fill="#FFD700"/>
  <rect x="9" y="6" width="1" height="1" fill="#FFD700"/>
  <rect x="18" y="6" width="1" height="1" fill="#FFD700"/>
  
  <!-- 翎羽 -->
  <rect x="6" y="4" width="2" height="2" fill="#DC143C"/>
  <rect x="20" y="4" width="2" height="2" fill="#DC143C"/>
  <rect x="7" y="3" width="1" height="1" fill="#FF6347"/>
  <rect x="20" y="3" width="1" height="1" fill="#FF6347"/>
  
  <!-- 头部 -->
  <rect x="10" y="7" width="8" height="4" fill="#FFE4C4"/>
  <rect x="9" y="8" width="1" height="2" fill="#FFE4C4"/>
  <rect x="18" y="8" width="1" height="2" fill="#FFE4C4"/>
  
  <!-- 眼睛 - 威严 -->
  <rect x="11" y="8" width="2" height="2" fill="#000000"/>
  <rect x="15" y="8" width="2" height="2" fill="#000000"/>
  <rect x="12" y="9" width="1" height="1" fill="#FFFFFF"/>
  <rect x="16" y="9" width="1" height="1" fill="#FFFFFF"/>
  
  <!-- 身体 - 天界战甲 -->
  <rect x="8" y="11" width="12" height="8" fill="#4682B4"/>
  <rect x="7" y="12" width="1" height="6" fill="#4682B4"/>
  <rect x="20" y="12" width="1" height="6" fill="#4682B4"/>
  
  <!-- 战甲装饰 -->
  <rect x="10" y="12" width="3" height="3" fill="#87CEEB"/>
  <rect x="15" y="12" width="3" height="3" fill="#87CEEB"/>
  <rect x="11" y="13" width="1" height="1" fill="#B0E0E6"/>
  <rect x="16" y="13" width="1" height="1" fill="#B0E0E6"/>
  <rect x="12" y="15" width="4" height="3" fill="#4169E1"/>
  <rect x="13" y="16" width="2" height="1" fill="#87CEEB"/>
  
  <!-- 护肩 -->
  <rect x="6" y="11" width="2" height="3" fill="#FFD700"/>
  <rect x="20" y="11" width="2" height="3" fill="#FFD700"/>
  <rect x="7" y="12" width="1" height="1" fill="#FFA500"/>
  <rect x="20" y="12" width="1" height="1" fill="#FFA500"/>
  
  <!-- 腰带 -->
  <rect x="9" y="18" width="10" height="1" fill="#FFD700"/>
  
  <!-- 腿部 -->
  <rect x="9" y="19" width="4" height="5" fill="#4682B4"/>
  <rect x="15" y="19" width="4" height="5" fill="#4682B4"/>
  <rect x="10" y="20" width="2" height="3" fill="#5F9EA0"/>
  <rect x="16" y="20" width="2" height="3" fill="#5F9EA0"/>
  
  <!-- 战靴 -->
  <rect x="8" y="24" width="5" height="2" fill="#2F4F4F"/>
  <rect x="15" y="24" width="5" height="2" fill="#2F4F4F"/>
  <rect x="9" y="25" width="3" height="1" fill="#C0C0C0"/>
  <rect x="16" y="25" width="3" height="1" fill="#C0C0C0"/>
  
  <!-- 武器 - 方天画戟 -->
  <rect x="22" y="8" width="2" height="12" fill="#C0C0C0"/>
  <rect x="21" y="7" width="1" height="1" fill="#FFD700"/>
  <rect x="24" y="7" width="1" height="1" fill="#FFD700"/>
  <rect x="20" y="8" width="2" height="2" fill="#4169E1"/>
  <rect x="24" y="8" width="2" height="2" fill="#4169E1"/>
  <rect x="23" y="6" width="1" height="2" fill="#DC143C"/>
</svg>