<svg xmlns="http://www.w3.org/2000/svg" viewBox="0 0 24 24" width="48" height="48">
  <rect width="24" height="24" fill="none"/>
  <!-- 小蜈蚣 -->
  <!-- 头部 -->
  <rect x="6" y="10" width="4" height="3" fill="#556B2F"/>
  <rect x="5" y="11" width="1" height="1" fill="#6B8E23"/>
  
  <!-- 触须 -->
  <rect x="4" y="11" width="1" height="1" fill="#556B2F"/>
  <rect x="3" y="11" width="1" height="1" fill="#6B8E23"/>
  
  <!-- 眼睛 -->
  <rect x="7" y="11" width="1" height="1" fill="#FF0000"/>
  
  <!-- 身体节段 -->
  <rect x="10" y="10" width="2" height="3" fill="#556B2F"/>
  <rect x="12" y="10" width="2" height="3" fill="#6B8E23"/>
  <rect x="14" y="10" width="2" height="3" fill="#556B2F"/>
  <rect x="16" y="11" width="2" height="1" fill="#6B8E23"/>
  
  <!-- 蜈蚣腿 - 左侧 -->
  <rect x="5" y="13" width="1" height="1" fill="#556B2F"/>
  <rect x="9" y="13" width="1" height="1" fill="#556B2F"/>
  <rect x="11" y="13" width="1" height="1" fill="#556B2F"/>
  <rect x="13" y="13" width="1" height="1" fill="#556B2F"/>
  <rect x="15" y="13" width="1" height="1" fill="#556B2F"/>
  
  <!-- 蜈蚣腿 - 右侧 -->
  <rect x="5" y="9" width="1" height="1" fill="#556B2F"/>
  <rect x="9" y="9" width="1" height="1" fill="#556B2F"/>
  <rect x="11" y="9" width="1" height="1" fill="#556B2F"/>
  <rect x="13" y="9" width="1" height="1" fill="#556B2F"/>
  <rect x="15" y="9" width="1" height="1" fill="#556B2F"/>
</svg>