<svg xmlns="http://www.w3.org/2000/svg" viewBox="0 0 28 28" width="56" height="56">
  <rect width="28" height="28" fill="none"/>
  <!-- 火将军 - 精英 -->
  <!-- 头盔 - 火焰 -->
  <rect x="8" y="6" width="12" height="2" fill="#FF8C00"/>
  <rect x="9" y="5" width="2" height="1" fill="#FF4500"/>
  <rect x="17" y="5" width="2" height="1" fill="#FF4500"/>
  <rect x="10" y="4" width="1" height="1" fill="#FFA500"/>
  <rect x="17" y="4" width="1" height="1" fill="#FFA500"/>
  
  <!-- 头部 -->
  <rect x="9" y="8" width="10" height="4" fill="#CD853F"/>
  <rect x="8" y="9" width="1" height="2" fill="#CD853F"/>
  <rect x="19" y="9" width="1" height="2" fill="#CD853F"/>
  
  <!-- 眼睛 - 火眼 -->
  <rect x="11" y="9" width="2" height="2" fill="#FF4500"/>
  <rect x="15" y="9" width="2" height="2" fill="#FF4500"/>
  <rect x="12" y="10" width="1" height="1" fill="#FFD700"/>
  <rect x="16" y="10" width="1" height="1" fill="#FFD700"/>
  
  <!-- 身体 - 火甲 -->
  <rect x="8" y="12" width="12" height="7" fill="#FF8C00"/>
  <rect x="7" y="13" width="1" height="5" fill="#FF8C00"/>
  <rect x="20" y="13" width="1" height="5" fill="#FF8C00"/>
  
  <!-- 火纹甲 -->
  <rect x="10" y="13" width="3" height="2" fill="#FFA500"/>
  <rect x="15" y="13" width="3" height="2" fill="#FFA500"/>
  <rect x="11" y="14" width="1" height="1" fill="#FFD700"/>
  <rect x="16" y="14" width="1" height="1" fill="#FFD700"/>
  <rect x="11" y="15" width="6" height="3" fill="#FF6347"/>
  <rect x="12" y="16" width="4" height="1" fill="#FF4500"/>
  
  <!-- 火焰装饰 -->
  <rect x="9" y="17" width="2" height="1" fill="#FF0000"/>
  <rect x="17" y="17" width="2" height="1" fill="#FF0000"/>
  
  <!-- 腰带 -->
  <rect x="9" y="18" width="10" height="1" fill="#8B4513"/>
  
  <!-- 腿部 -->
  <rect x="9" y="19" width="4" height="5" fill="#FF8C00"/>
  <rect x="15" y="19" width="4" height="5" fill="#FF8C00"/>
  <rect x="10" y="20" width="2" height="3" fill="#FFA500"/>
  <rect x="16" y="20" width="2" height="3" fill="#FFA500"/>
  
  <!-- 战靴 -->
  <rect x="8" y="24" width="5" height="2" fill="#8B4513"/>
  <rect x="15" y="24" width="5" height="2" fill="#8B4513"/>
  
  <!-- 火焰长枪 -->
  <rect x="22" y="10" width="2" height="10" fill="#8B4513"/>
  <rect x="21" y="9" width="1" height="1" fill="#FF0000"/>
  <rect x="24" y="9" width="1" height="1" fill="#FF0000"/>
  <rect x="20" y="10" width="2" height="2" fill="#FF4500"/>
  <rect x="24" y="10" width="2" height="2" fill="#FF4500"/>
  <rect x="22" y="8" width="2" height="1" fill="#FFA500"/>
  
  <!-- 火焰特效 -->
  <rect x="19" y="11" width="1" height="1" fill="#FFA500" opacity="0.7"/>
  <rect x="26" y="12" width="1" height="1" fill="#FFA500" opacity="0.7"/>
  <rect x="20" y="13" width="1" height="1" fill="#FF4500" opacity="0.6"/>
</svg>