<svg xmlns="http://www.w3.org/2000/svg" viewBox="0 0 32 28" width="64" height="56">
  <rect width="32" height="28" fill="none"/>
  <!-- 毒蜈蚣 - 精英 -->
  <!-- 头部 -->
  <rect x="6" y="11" width="6" height="4" fill="#006400"/>
  <rect x="5" y="12" width="1" height="2" fill="#228B22"/>
  
  <!-- 触须 -->
  <rect x="3" y="12" width="2" height="1" fill="#32CD32"/>
  <rect x="2" y="13" width="2" height="1" fill="#00FF00"/>
  <rect x="3" y="11" width="2" height="1" fill="#32CD32"/>
  <rect x="2" y="10" width="2" height="1" fill="#00FF00"/>
  
  <!-- 毒眼 -->
  <rect x="7" y="12" width="2" height="1" fill="#00FF00"/>
  <rect x="9" y="13" width="1" height="1" fill="#FFFF00"/>
  
  <!-- 蜈蚣身体节段 -->
  <rect x="12" y="11" width="3" height="4" fill="#006400"/>
  <rect x="15" y="11" width="3" height="4" fill="#228B22"/>
  <rect x="18" y="11" width="3" height="4" fill="#006400"/>
  <rect x="21" y="11" width="3" height="4" fill="#228B22"/>
  <rect x="24" y="11" width="3" height="4" fill="#006400"/>
  <rect x="27" y="12" width="2" height="2" fill="#228B22"/>
  
  <!-- 毒刺纹理 -->
  <rect x="13" y="12" width="1" height="1" fill="#32CD32"/>
  <rect x="16" y="12" width="1" height="1" fill="#32CD32"/>
  <rect x="19" y="12" width="1" height="1" fill="#32CD32"/>
  <rect x="22" y="12" width="1" height="1" fill="#32CD32"/>
  <rect x="25" y="12" width="1" height="1" fill="#32CD32"/>
  
  <!-- 蜈蚣腿 - 左侧 -->
  <rect x="5" y="15" width="2" height="1" fill="#228B22"/>
  <rect x="4" y="16" width="2" height="1" fill="#32CD32"/>
  <rect x="10" y="15" width="2" height="1" fill="#228B22"/>
  <rect x="9" y="16" width="2" height="1" fill="#32CD32"/>
  <rect x="13" y="15" width="2" height="1" fill="#228B22"/>
  <rect x="12" y="16" width="2" height="1" fill="#32CD32"/>
  <rect x="16" y="15" width="2" height="1" fill="#228B22"/>
  <rect x="15" y="16" width="2" height="1" fill="#32CD32"/>
  <rect x="19" y="15" width="2" height="1" fill="#228B22"/>
  <rect x="18" y="16" width="2" height="1" fill="#32CD32"/>
  <rect x="22" y="15" width="2" height="1" fill="#228B22"/>
  <rect x="21" y="16" width="2" height="1" fill="#32CD32"/>
  <rect x="25" y="15" width="2" height="1" fill="#228B22"/>
  <rect x="24" y="16" width="2" height="1" fill="#32CD32"/>
  
  <!-- 蜈蚣腿 - 右侧 -->
  <rect x="5" y="10" width="2" height="1" fill="#228B22"/>
  <rect x="4" y="9" width="2" height="1" fill="#32CD32"/>
  <rect x="10" y="10" width="2" height="1" fill="#228B22"/>
  <rect x="9" y="9" width="2" height="1" fill="#32CD32"/>
  <rect x="13" y="10" width="2" height="1" fill="#228B22"/>
  <rect x="12" y="9" width="2" height="1" fill="#32CD32"/>
  <rect x="16" y="10" width="2" height="1" fill="#228B22"/>
  <rect x="15" y="9" width="2" height="1" fill="#32CD32"/>
  <rect x="19" y="10" width="2" height="1" fill="#228B22"/>
  <rect x="18" y="9" width="2" height="1" fill="#32CD32"/>
  <rect x="22" y="10" width="2" height="1" fill="#228B22"/>
  <rect x="21" y="9" width="2" height="1" fill="#32CD32"/>
  <rect x="25" y="10" width="2" height="1" fill="#228B22"/>
  <rect x="24" y="9" width="2" height="1" fill="#32CD32"/>
  
  <!-- 毒液特效 -->
  <rect x="1" y="13" width="1" height="1" fill="#00FF00" opacity="0.8"/>
  <rect x="2" y="14" width="1" height="1" fill="#32CD32" opacity="0.7"/>
  <rect x="0" y="12" width="1" height="1" fill="#ADFF2F" opacity="0.6"/>
</svg>