<svg xmlns="http://www.w3.org/2000/svg" viewBox="0 0 28 28" width="56" height="56">
  <rect width="28" height="28" fill="none"/>
  <!-- 蝎子精 - 精英 -->
  <!-- 头部 - 带钳 -->
  <rect x="8" y="9" width="8" height="4" fill="#DC143C"/>
  <rect x="7" y="10" width="1" height="2" fill="#DC143C"/>
  <rect x="16" y="10" width="1" height="2" fill="#DC143C"/>
  
  <!-- 钳子 -->
  <rect x="5" y="10" width="2" height="2" fill="#8B0000"/>
  <rect x="4" y="11" width="1" height="1" fill="#DC143C"/>
  <rect x="17" y="10" width="2" height="2" fill="#8B0000"/>
  <rect x="19" y="11" width="1" height="1" fill="#DC143C"/>
  
  <!-- 眼睛 -->
  <rect x="9" y="10" width="2" height="1" fill="#FFFF00"/>
  <rect x="13" y="10" width="2" height="1" fill="#FFFF00"/>
  
  <!-- 身体 -->
  <rect x="8" y="13" width="8" height="4" fill="#8B0000"/>
  <rect x="9" y="14" width="6" height="2" fill="#DC143C"/>
  
  <!-- 蝎子腿 - 左侧 -->
  <rect x="6" y="13" width="2" height="1" fill="#8B0000"/>
  <rect x="5" y="14" width="2" height="1" fill="#A52A2A"/>
  <rect x="6" y="15" width="2" height="1" fill="#8B0000"/>
  <rect x="5" y="16" width="2" height="1" fill="#A52A2A"/>
  
  <!-- 蝎子腿 - 右侧 -->
  <rect x="16" y="13" width="2" height="1" fill="#8B0000"/>
  <rect x="17" y="14" width="2" height="1" fill="#A52A2A"/>
  <rect x="16" y="15" width="2" height="1" fill="#8B0000"/>
  <rect x="17" y="16" width="2" height="1" fill="#A52A2A"/>
  
  <!-- 蝎尾 -->
  <rect x="10" y="17" width="4" height="2" fill="#8B0000"/>
  <rect x="11" y="19" width="3" height="2" fill="#DC143C"/>
  <rect x="12" y="21" width="2" height="2" fill="#8B0000"/>
  <rect x="13" y="23" width="2" height="2" fill="#DC143C"/>
  
  <!-- 蝎尾毒刺 -->
  <rect x="14" y="25" width="1" height="2" fill="#2F4F4F"/>
  <rect x="14" y="26" width="1" height="1" fill="#00FF00"/>
  
  <!-- 甲壳纹理 -->
  <rect x="9" y="13" width="2" height="1" fill="#A52A2A"/>
  <rect x="13" y="13" width="2" height="1" fill="#A52A2A"/>
  <rect x="10" y="15" width="1" height="1" fill="#DC143C"/>
  <rect x="13" y="15" width="1" height="1" fill="#DC143C"/>
</svg>