<svg xmlns="http://www.w3.org/2000/svg" viewBox="0 0 24 24" width="48" height="48">
  <rect width="24" height="24" fill="none"/>
  <!-- 小蜘蛛精 -->
  <!-- 头部 -->
  <rect x="9" y="7" width="6" height="3" fill="#8B008B"/>
  <rect x="8" y="8" width="1" height="1" fill="#8B008B"/>
  <rect x="15" y="8" width="1" height="1" fill="#8B008B"/>
  
  <!-- 眼睛 -->
  <rect x="10" y="8" width="2" height="1" fill="#9370DB"/>
  <rect x="12" y="8" width="2" height="1" fill="#9370DB"/>
  
  <!-- 蜘蛛腹部 -->
  <rect x="8" y="10" width="8" height="4" fill="#8B008B"/>
  <rect x="9" y="11" width="6" height="2" fill="#9370DB"/>
  
  <!-- 蜘蛛腿 (简化版8条) -->
  <!-- 左侧 -->
  <rect x="6" y="11" width="2" height="1" fill="#8B008B"/>
  <rect x="5" y="12" width="1" height="1" fill="#9370DB"/>
  <rect x="6" y="13" width="2" height="1" fill="#8B008B"/>
  <rect x="5" y="14" width="1" height="1" fill="#9370DB"/>
  
  <!-- 右侧 -->
  <rect x="16" y="11" width="2" height="1" fill="#8B008B"/>
  <rect x="18" y="12" width="1" height="1" fill="#9370DB"/>
  <rect x="16" y="13" width="2" height="1" fill="#8B008B"/>
  <rect x="18" y="14" width="1" height="1" fill="#9370DB"/>
  
  <!-- 蛛丝 -->
  <rect x="11" y="6" width="2" height="1" fill="#E6E6FA" opacity="0.7"/>
  <rect x="7" y="10" width="1" height="1" fill="#FFFFFF" opacity="0.6"/>
  <rect x="16" y="10" width="1" height="1" fill="#FFFFFF" opacity="0.6"/>
</svg>