<svg xmlns="http://www.w3.org/2000/svg" viewBox="0 0 24 24" width="48" height="48">
  <rect width="24" height="24" fill="none"/>
  <!-- 蜘蛛女妖 -->
  <!-- 头部 -->
  <rect x="9" y="6" width="6" height="4" fill="#9370DB"/>
  <rect x="8" y="7" width="1" height="2" fill="#9370DB"/>
  <rect x="15" y="7" width="1" height="2" fill="#9370DB"/>
  
  <!-- 眼睛 - 魅惑 -->
  <rect x="10" y="7" width="2" height="1" fill="#FF00FF"/>
  <rect x="12" y="7" width="2" height="1" fill="#FF00FF"/>
  <rect x="11" y="7" width="1" height="1" fill="#FFFFFF"/>
  <rect x="13" y="7" width="1" height="1" fill="#FFFFFF"/>
  
  <!-- 身体 -->
  <rect x="9" y="10" width="6" height="4" fill="#9370DB"/>
  <rect x="10" y="11" width="4" height="2" fill="#8B008B"/>
  
  <!-- 蜘蛛腹部 -->
  <rect x="8" y="14" width="8" height="4" fill="#4B0082"/>
  <rect x="9" y="15" width="6" height="2" fill="#8B008B"/>
  
  <!-- 蜘蛛腿 (8条) -->
  <!-- 左侧 -->
  <rect x="6" y="12" width="2" height="1" fill="#9370DB"/>
  <rect x="5" y="13" width="1" height="2" fill="#8B008B"/>
  <rect x="6" y="14" width="2" height="1" fill="#9370DB"/>
  <rect x="5" y="15" width="1" height="2" fill="#8B008B"/>
  <rect x="7" y="16" width="2" height="1" fill="#9370DB"/>
  <rect x="6" y="17" width="1" height="2" fill="#8B008B"/>
  <rect x="7" y="17" width="2" height="1" fill="#9370DB"/>
  <rect x="6" y="18" width="1" height="2" fill="#8B008B"/>
  
  <!-- 右侧 -->
  <rect x="16" y="12" width="2" height="1" fill="#9370DB"/>
  <rect x="18" y="13" width="1" height="2" fill="#8B008B"/>
  <rect x="16" y="14" width="2" height="1" fill="#9370DB"/>
  <rect x="18" y="15" width="1" height="2" fill="#8B008B"/>
  <rect x="15" y="16" width="2" height="1" fill="#9370DB"/>
  <rect x="17" y="17" width="1" height="2" fill="#8B008B"/>
  <rect x="15" y="17" width="2" height="1" fill="#9370DB"/>
  <rect x="17" y="18" width="1" height="2" fill="#8B008B"/>
  
  <!-- 蛛丝效果 -->
  <rect x="7" y="9" width="1" height="2" fill="#E6E6FA" opacity="0.6"/>
  <rect x="16" y="9" width="1" height="2" fill="#E6E6FA" opacity="0.6"/>
  <rect x="8" y="8" width="1" height="1" fill="#FFFFFF" opacity="0.5"/>
  <rect x="15" y="8" width="1" height="1" fill="#FFFFFF" opacity="0.5"/>
</svg>