<svg xmlns="http://www.w3.org/2000/svg" viewBox="0 0 28 28" width="56" height="56">
  <rect width="28" height="28" fill="none"/>
  <!-- 紫蜘蛛 - 精英 -->
  <!-- 头部 -->
  <rect x="9" y="8" width="10" height="4" fill="#9400D3"/>
  <rect x="8" y="9" width="1" height="2" fill="#9400D3"/>
  <rect x="19" y="9" width="1" height="2" fill="#9400D3"/>
  
  <!-- 眼睛 - 多眼 -->
  <rect x="10" y="9" width="2" height="1" fill="#FF00FF"/>
  <rect x="12" y="9" width="2" height="1" fill="#FF00FF"/>
  <rect x="14" y="9" width="2" height="1" fill="#FF00FF"/>
  <rect x="16" y="9" width="2" height="1" fill="#FF00FF"/>
  <rect x="11" y="10" width="1" height="1" fill="#FFFFFF"/>
  <rect x="13" y="10" width="1" height="1" fill="#FFFFFF"/>
  <rect x="15" y="10" width="1" height="1" fill="#FFFFFF"/>
  <rect x="17" y="10" width="1" height="1" fill="#FFFFFF"/>
  
  <!-- 蜘蛛腹部 -->
  <rect x="8" y="12" width="12" height="6" fill="#8B008B"/>
  <rect x="7" y="13" width="1" height="4" fill="#8B008B"/>
  <rect x="20" y="13" width="1" height="4" fill="#8B008B"/>
  <rect x="9" y="13" width="10" height="4" fill="#9400D3"/>
  <rect x="11" y="14" width="6" height="2" fill="#9370DB"/>
  
  <!-- 蜘蛛腿 (8条) - 左侧 -->
  <rect x="5" y="12" width="3" height="1" fill="#8B008B"/>
  <rect x="4" y="13" width="2" height="2" fill="#9400D3"/>
  <rect x="5" y="14" width="3" height="1" fill="#8B008B"/>
  <rect x="4" y="15" width="2" height="2" fill="#9400D3"/>
  <rect x="6" y="16" width="2" height="1" fill="#8B008B"/>
  <rect x="5" y="17" width="2" height="2" fill="#9400D3"/>
  <rect x="6" y="17" width="2" height="1" fill="#8B008B"/>
  <rect x="5" y="18" width="2" height="2" fill="#9400D3"/>
  
  <!-- 蜘蛛腿 (8条) - 右侧 -->
  <rect x="20" y="12" width="3" height="1" fill="#8B008B"/>
  <rect x="22" y="13" width="2" height="2" fill="#9400D3"/>
  <rect x="20" y="14" width="3" height="1" fill="#8B008B"/>
  <rect x="22" y="15" width="2" height="2" fill="#9400D3"/>
  <rect x="20" y="16" width="2" height="1" fill="#8B008B"/>
  <rect x="21" y="17" width="2" height="2" fill="#9400D3"/>
  <rect x="20" y="17" width="2" height="1" fill="#8B008B"/>
  <rect x="21" y="18" width="2" height="2" fill="#9400D3"/>
  
  <!-- 蛛丝特效 -->
  <rect x="7" y="11" width="2" height="1" fill="#E6E6FA" opacity="0.7"/>
  <rect x="19" y="11" width="2" height="1" fill="#E6E6FA" opacity="0.7"/>
  <rect x="6" y="19" width="2" height="1" fill="#FFFFFF" opacity="0.6"/>
  <rect x="20" y="19" width="2" height="1" fill="#FFFFFF" opacity="0.6"/>
</svg>