<svg xmlns="http://www.w3.org/2000/svg" viewBox="0 0 28 28" width="56" height="56">
  <rect width="28" height="28" fill="none"/>
  <!-- 风妖统领 - 精英 -->
  <!-- 头部 - 飘渺 -->
  <rect x="8" y="7" width="12" height="5" fill="#87CEEB" opacity="0.9"/>
  <rect x="7" y="8" width="1" height="3" fill="#87CEEB" opacity="0.8"/>
  <rect x="20" y="8" width="1" height="3" fill="#87CEEB" opacity="0.8"/>
  
  <!-- 眼睛 - 风眼 -->
  <rect x="10" y="9" width="2" height="2" fill="#E0FFFF"/>
  <rect x="16" y="9" width="2" height="2" fill="#E0FFFF"/>
  <rect x="11" y="10" width="1" height="1" fill="#87CEEB"/>
  <rect x="17" y="10" width="1" height="1" fill="#87CEEB"/>
  
  <!-- 风纹 -->
  <rect x="9" y="8" width="2" height="1" fill="#B0E0E6"/>
  <rect x="17" y="8" width="2" height="1" fill="#B0E0E6"/>
  
  <!-- 身体 - 风体 -->
  <rect x="7" y="12" width="14" height="7" fill="#87CEEB" opacity="0.85"/>
  <rect x="6" y="13" width="1" height="5" fill="#87CEEB" opacity="0.7"/>
  <rect x="21" y="13" width="1" height="5" fill="#87CEEB" opacity="0.7"/>
  
  <!-- 风纹装饰 -->
  <rect x="9" y="13" width="3" height="1" fill="#B0E0E6"/>
  <rect x="16" y="13" width="3" height="1" fill="#B0E0E6"/>
  <rect x="10" y="14" width="2" height="1" fill="#E0FFFF"/>
  <rect x="16" y="14" width="2" height="1" fill="#E0FFFF"/>
  <rect x="11" y="15" width="6" height="2" fill="#ADD8E6"/>
  <rect x="12" y="16" width="4" height="1" fill="#E0FFFF"/>
  <rect x="9" y="17" width="2" height="1" fill="#B0E0E6"/>
  <rect x="17" y="17" width="2" height="1" fill="#B0E0E6"/>
  
  <!-- 下身 - 旋风 -->
  <rect x="8" y="19" width="12" height="3" fill="#87CEEB" opacity="0.7"/>
  <rect x="9" y="20" width="10" height="1" fill="#B0E0E6" opacity="0.8"/>
  <rect x="9" y="22" width="10" height="2" fill="#ADD8E6" opacity="0.6"/>
  <rect x="10" y="24" width="8" height="2" fill="#E0FFFF" opacity="0.5"/>
  <rect x="11" y="26" width="6" height="1" fill="#B0E0E6" opacity="0.4"/>
  
  <!-- 风流特效 -->
  <rect x="5" y="13" width="2" height="1" fill="#E0FFFF" opacity="0.6"/>
  <rect x="21" y="14" width="2" height="1" fill="#E0FFFF" opacity="0.6"/>
  <rect x="4" y="15" width="3" height="1" fill="#B0E0E6" opacity="0.5"/>
  <rect x="21" y="16" width="3" height="1" fill="#B0E0E6" opacity="0.5"/>
  <rect x="6" y="18" width="2" height="1" fill="#87CEEB" opacity="0.4"/>
  <rect x="20" y="19" width="2" height="1" fill="#87CEEB" opacity="0.4"/>
  <rect x="7" y="21" width="1" height="2" fill="#ADD8E6" opacity="0.3"/>
  <rect x="20" y="22" width="1" height="2" fill="#ADD8E6" opacity="0.3"/>
</svg>