<svg width="32" height="32" viewBox="0 0 32 32" fill="none" xmlns="http://www.w3.org/2000/svg">
  <!-- 宝石主体：六边形底座 -->
  <path d="M16 2L24 8L28 16L24 24L16 30L8 24L4 16L8 8L16 2Z" fill="url(#highGemGradient)" stroke="#6B3CB8" stroke-width="1.5"/>
  <!-- 内部菱形切面 -->
  <path d="M16 6L21 12L16 18L11 12L16 6Z" fill="url(#highGemInnerGradient)"/>
  <!-- 顶部高光 -->
  <path d="M16 4L19 8L16 12L13 8L16 4Z" fill="#F6E6FF" opacity="0.9"/>
  <!-- 侧面高光 -->
  <path d="M19 8L22 12L19 16L16 12L19 8Z" fill="#E0C6F7" opacity="0.7"/>
  <path d="M11 8L13 12L11 16L8 12L11 8Z" fill="#E0C6F7" opacity="0.7"/>
  <!-- 底部反光 -->
  <path d="M16 22L19 18L16 14L13 18L16 22Z" fill="#FFF" opacity="0.4"/>
  <!-- 内部细节纹路 -->
  <path d="M16 12L19 16L16 20L13 16L16 12Z" fill="url(#highGemDetailGradient)" opacity="0.5"/>
  <!-- 额外的内部切面 -->
  <path d="M12 13L16 16L12 19L8 16L12 13Z" fill="#E0C6F7" opacity="0.3"/>
  <path d="M20 13L16 16L20 19L24 16L20 13Z" fill="#E0C6F7" opacity="0.3"/>
  <!-- 中心亮点 -->
  <circle cx="16" cy="12" r="1.5" fill="#FFF" opacity="0.8"/>
  <!-- 渐变定义 -->
  <defs>
    <linearGradient id="highGemGradient" x1="4" y1="16" x2="28" y2="16" gradientUnits="userSpaceOnUse">
      <stop stop-color="#B18AE2" stop-opacity="0.9"/>
      <stop offset="0.4" stop-color="#C4A6F2" stop-opacity="0.95"/>
      <stop offset="0.5" stop-color="#D8BFF7" stop-opacity="1"/>
      <stop offset="0.6" stop-color="#C4A6F2" stop-opacity="0.95"/>
      <stop offset="1" stop-color="#B18AE2" stop-opacity="0.9"/>
    </linearGradient>
    <linearGradient id="highGemInnerGradient" x1="11" y1="12" x2="21" y2="12" gradientUnits="userSpaceOnUse">
      <stop stop-color="#E0C6F7" stop-opacity="0.8"/>
      <stop offset="0.5" stop-color="#F6E6FF" stop-opacity="1"/>
      <stop offset="1" stop-color="#E0C6F7" stop-opacity="0.8"/>
    </linearGradient>
    <linearGradient id="highGemDetailGradient" x1="13" y1="16" x2="19" y2="16" gradientUnits="userSpaceOnUse">
      <stop stop-color="#6B3CB8" stop-opacity="0.3"/>
      <stop offset="0.5" stop-color="#B18AE2" stop-opacity="0.5"/>
      <stop offset="1" stop-color="#6B3CB8" stop-opacity="0.3"/>
    </linearGradient>
  </defs>
</svg>