<svg xmlns="http://www.w3.org/2000/svg" viewBox="0 0 32 32" width="64" height="64">
  <rect width="32" height="32" fill="none"/>
  <!-- 二郎神 -->
  <!-- 头盔 -->
  <rect x="10" y="7" width="12" height="2" fill="#4169E1"/>
  <rect x="9" y="8" width="1" height="1" fill="#4682B4"/>
  <rect x="22" y="8" width="1" height="1" fill="#4682B4"/>
  <rect x="15" y="7" width="2" height="1" fill="#FFD700"/>
  
  <!-- 第三只眼 -->
  <rect x="15" y="9" width="2" height="1" fill="#FFD700"/>
  <rect x="15" y="10" width="2" height="1" fill="#FF0000"/>
  
  <!-- 头部 -->
  <rect x="11" y="10" width="10" height="6" fill="#FFE4C4"/>
  <rect x="10" y="11" width="1" height="4" fill="#FFE4C4"/>
  <rect x="21" y="11" width="1" height="4" fill="#FFE4C4"/>
  
  <!-- 眼睛 - 锐利 -->
  <rect x="12" y="12" width="3" height="2" fill="#000000"/>
  <rect x="17" y="12" width="3" height="2" fill="#000000"/>
  <rect x="13" y="13" width="1" height="1" fill="#FFFFFF"/>
  <rect x="18" y="13" width="1" height="1" fill="#FFFFFF"/>
  
  <!-- 嘴 -->
  <rect x="14" y="15" width="4" height="1" fill="#8B4513"/>
  
  <!-- 身体 - 银甲 -->
  <rect x="10" y="16" width="12" height="7" fill="#C0C0C0"/>
  <rect x="9" y="17" width="1" height="5" fill="#C0C0C0"/>
  <rect x="22" y="17" width="1" height="5" fill="#C0C0C0"/>
  
  <!-- 铠甲装饰 -->
  <rect x="12" y="17" width="2" height="2" fill="#4169E1"/>
  <rect x="18" y="17" width="2" height="2" fill="#4169E1"/>
  <rect x="14" y="18" width="4" height="3" fill="#4682B4"/>
  <rect x="15" y="19" width="2" height="1" fill="#87CEEB"/>
  <rect x="11" y="20" width="2" height="2" fill="#FFD700"/>
  <rect x="19" y="20" width="2" height="2" fill="#FFD700"/>
  
  <!-- 披风 -->
  <rect x="8" y="17" width="1" height="6" fill="#1E90FF"/>
  <rect x="23" y="17" width="1" height="6" fill="#1E90FF"/>
  <rect x="7" y="19" width="1" height="4" fill="#4169E1"/>
  <rect x="24" y="19" width="1" height="4" fill="#4169E1"/>
  
  <!-- 腰带 -->
  <rect x="10" y="22" width="12" height="1" fill="#FFD700"/>
  
  <!-- 腿部 -->
  <rect x="11" y="23" width="4" height="4" fill="#4682B4"/>
  <rect x="17" y="23" width="4" height="4" fill="#4682B4"/>
  <rect x="12" y="24" width="2" height="2" fill="#5F9EA0"/>
  <rect x="18" y="24" width="2" height="2" fill="#5F9EA0"/>
  
  <!-- 战靴 -->
  <rect x="10" y="27" width="5" height="3" fill="#2F4F4F"/>
  <rect x="17" y="27" width="5" height="3" fill="#2F4F4F"/>
  <rect x="11" y="28" width="3" height="1" fill="#C0C0C0"/>
  <rect x="18" y="28" width="3" height="1" fill="#C0C0C0"/>
  
  <!-- 三尖两刃刀提示 -->
  <rect x="24" y="12" width="2" height="14" fill="#C0C0C0"/>
  <rect x="25" y="11" width="1" height="1" fill="#4169E1"/>
  <rect x="23" y="12" width="1" height="2" fill="#4682B4"/>
  <rect x="26" y="12" width="1" height="2" fill="#4682B4"/>
  <rect x="25" y="26" width="1" height="1" fill="#FFD700"/>
</svg>