<svg xmlns="http://www.w3.org/2000/svg" viewBox="0 0 32 32" width="64" height="64">
  <rect width="32" height="32" fill="none"/>
  <!-- 金蝉子 -->
  <!-- 光环 -->
  <rect x="8" y="5" width="16" height="1" fill="#FFD700" opacity="0.8"/>
  <rect x="7" y="6" width="2" height="1" fill="#FFA500" opacity="0.7"/>
  <rect x="23" y="6" width="2" height="1" fill="#FFA500" opacity="0.7"/>
  
  <!-- 头部 - 光头 -->
  <rect x="11" y="7" width="10" height="5" fill="#F5DEB3"/>
  <rect x="10" y="8" width="1" height="3" fill="#F5DEB3"/>
  <rect x="21" y="8" width="1" height="3" fill="#F5DEB3"/>
  
  <!-- 九点戒疤 -->
  <rect x="13" y="7" width="1" height="1" fill="#8B4513"/>
  <rect x="15" y="7" width="1" height="1" fill="#8B4513"/>
  <rect x="17" y="7" width="1" height="1" fill="#8B4513"/>
  <rect x="14" y="8" width="1" height="1" fill="#8B4513"/>
  <rect x="16" y="8" width="1" height="1" fill="#8B4513"/>
  <rect x="18" y="8" width="1" height="1" fill="#8B4513"/>
  <rect x="13" y="9" width="1" height="1" fill="#8B4513"/>
  <rect x="17" y="9" width="1" height="1" fill="#8B4513"/>
  <rect x="15" y="10" width="2" height="1" fill="#8B4513"/>
  
  <!-- 眼睛 - 慈悲 -->
  <rect x="13" y="10" width="2" height="1" fill="#000000"/>
  <rect x="17" y="10" width="2" height="1" fill="#000000"/>
  
  <!-- 微笑 -->
  <rect x="14" y="11" width="4" height="1" fill="#8B4513"/>
  <rect x="13" y="11" width="1" height="1" fill="#CD853F"/>
  <rect x="18" y="11" width="1" height="1" fill="#CD853F"/>
  
  <!-- 袈裟 - 金色 -->
  <rect x="10" y="12" width="12" height="10" fill="#FFD700"/>
  <rect x="9" y="13" width="1" height="8" fill="#FFD700"/>
  <rect x="22" y="13" width="1" height="8" fill="#FFD700"/>
  
  <!-- 袈裟装饰 - 佛纹 -->
  <rect x="11" y="13" width="10" height="1" fill="#FFA500"/>
  <rect x="12" y="14" width="8" height="6" fill="#F0E68C"/>
  <rect x="13" y="15" width="6" height="4" fill="#FFFFE0"/>
  <rect x="14" y="16" width="4" height="2" fill="#FFFACD"/>
  <rect x="15" y="17" width="2" height="1" fill="#FFFFFF"/>
  
  <!-- 佛光纹 -->
  <rect x="13" y="19" width="2" height="1" fill="#FFD700"/>
  <rect x="17" y="19" width="2" height="1" fill="#FFD700"/>
  <rect x="14" y="20" width="4" height="1" fill="#FFA500"/>
  
  <!-- 佛珠 -->
  <rect x="11" y="21" width="2" height="1" fill="#8B4513"/>
  <rect x="13" y="21" width="1" height="1" fill="#A0522D"/>
  <rect x="14" y="21" width="2" height="1" fill="#8B4513"/>
  <rect x="16" y="21" width="1" height="1" fill="#A0522D"/>
  <rect x="17" y="21" width="2" height="1" fill="#8B4513"/>
  <rect x="19" y="21" width="2" height="1" fill="#8B4513"/>
  
  <!-- 下摆 -->
  <rect x="10" y="22" width="12" height="5" fill="#FFD700"/>
  <rect x="11" y="23" width="10" height="3" fill="#F0E68C"/>
  <rect x="12" y="24" width="8" height="1" fill="#FFFFE0"/>
  
  <!-- 腿部 -->
  <rect x="11" y="27" width="4" height="2" fill="#F0E68C"/>
  <rect x="17" y="27" width="4" height="2" fill="#F0E68C"/>
  
  <!-- 僧鞋 -->
  <rect x="10" y="29" width="5" height="2" fill="#8B4513"/>
  <rect x="17" y="29" width="5" height="2" fill="#8B4513"/>
  
  <!-- 佛光 -->
  <rect x="6" y="13" width="1" height="1" fill="#FFD700" opacity="0.6"/>
  <rect x="25" y="13" width="1" height="1" fill="#FFD700" opacity="0.6"/>
  <rect x="7" y="16" width="1" height="2" fill="#FFA500" opacity="0.5"/>
  <rect x="24" y="16" width="1" height="2" fill="#FFA500" opacity="0.5"/>
  <rect x="8" y="20" width="1" height="1" fill="#FFFFE0" opacity="0.4"/>
  <rect x="23" y="20" width="1" height="1" fill="#FFFFE0" opacity="0.4"/>
</svg>