<svg xmlns="http://www.w3.org/2000/svg" viewBox="0 0 32 32" width="64" height="64">
  <rect width="32" height="32" fill="none"/>
  <!-- 齐天大圣 - 完整形态孙悟空 -->
  <!-- 金冠 -->
  <rect x="9" y="7" width="14" height="2" fill="#FFD700"/>
  <rect x="10" y="6" width="12" height="1" fill="#FFA500"/>
  <rect x="8" y="8" width="1" height="1" fill="#B8860B"/>
  <rect x="23" y="8" width="1" height="1" fill="#B8860B"/>
  <rect x="14" y="6" width="4" height="1" fill="#FF0000"/>
  
  <!-- 头部 -->
  <rect x="11" y="9" width="10" height="6" fill="#F4A460"/>
  <rect x="10" y="10" width="1" height="4" fill="#F4A460"/>
  <rect x="21" y="10" width="1" height="4" fill="#F4A460"/>
  
  <!-- 火眼金睛 -->
  <rect x="12" y="11" width="3" height="2" fill="#FFD700"/>
  <rect x="17" y="11" width="3" height="2" fill="#FFD700"/>
  <rect x="13" y="11" width="1" height="1" fill="#FF0000"/>
  <rect x="18" y="11" width="1" height="1" fill="#FF0000"/>
  <rect x="12" y="13" width="3" height="1" fill="#FFA500"/>
  <rect x="17" y="13" width="3" height="1" fill="#FFA500"/>
  
  <!-- 嘴 -->
  <rect x="14" y="14" width="4" height="1" fill="#8B4513"/>
  
  <!-- 身体 - 黄金锁子甲 -->
  <rect x="10" y="15" width="12" height="8" fill="#FFD700"/>
  <rect x="9" y="16" width="1" height="6" fill="#FFD700"/>
  <rect x="22" y="16" width="1" height="6" fill="#FFD700"/>
  
  <!-- 甲片纹理 -->
  <rect x="11" y="16" width="2" height="2" fill="#FFA500"/>
  <rect x="13" y="17" width="2" height="2" fill="#FFA500"/>
  <rect x="15" y="16" width="2" height="2" fill="#FFA500"/>
  <rect x="17" y="17" width="2" height="2" fill="#FFA500"/>
  <rect x="19" y="16" width="2" height="2" fill="#FFA500"/>
  <rect x="12" y="19" width="2" height="2" fill="#B8860B"/>
  <rect x="18" y="19" width="2" height="2" fill="#B8860B"/>
  <rect x="15" y="20" width="2" height="2" fill="#B8860B"/>
  
  <!-- 虎皮裙 -->
  <rect x="10" y="22" width="12" height="1" fill="#FF8C00"/>
  <rect x="11" y="23" width="10" height="3" fill="#FFA500"/>
  <rect x="12" y="24" width="2" height="1" fill="#8B4513"/>
  <rect x="15" y="24" width="2" height="1" fill="#8B4513"/>
  <rect x="18" y="24" width="2" height="1" fill="#8B4513"/>
  
  <!-- 腿部 -->
  <rect x="11" y="26" width="4" height="2" fill="#F4A460"/>
  <rect x="17" y="26" width="4" height="2" fill="#F4A460"/>
  
  <!-- 云靴 -->
  <rect x="10" y="28" width="5" height="3" fill="#DC143C"/>
  <rect x="17" y="28" width="5" height="3" fill="#DC143C"/>
  <rect x="11" y="29" width="3" height="1" fill="#FFD700"/>
  <rect x="18" y="29" width="3" height="1" fill="#FFD700"/>
  
  <!-- 如意金箍棒 -->
  <rect x="5" y="10" width="3" height="16" fill="#B8860B"/>
  <rect x="4" y="9" width="1" height="1" fill="#FFD700"/>
  <rect x="8" y="9" width="1" height="1" fill="#FFD700"/>
  <rect x="4" y="11" width="1" height="1" fill="#FF0000"/>
  <rect x="8" y="11" width="1" height="1" fill="#FF0000"/>
  <rect x="4" y="26" width="1" height="1" fill="#FFD700"/>
  <rect x="8" y="26" width="1" height="1" fill="#FFD700"/>
  <rect x="6" y="17" width="1" height="2" fill="#FFD700"/>
  
  <!-- 云雾特效 -->
  <rect x="8" y="28" width="2" height="1" fill="#F0F8FF" opacity="0.7"/>
  <rect x="22" y="28" width="2" height="1" fill="#F0F8FF" opacity="0.7"/>
  <rect x="7" y="29" width="3" height="1" fill="#E6E6FA" opacity="0.6"/>
  <rect x="22" y="29" width="3" height="1" fill="#E6E6FA" opacity="0.6"/>
</svg>