<svg xmlns="http://www.w3.org/2000/svg" viewBox="0 0 32 32" width="64" height="64">
  <rect width="32" height="32" fill="none"/>
  <!-- 百眼道人 -->
  <!-- 头部 -->
  <rect x="10" y="7" width="12" height="6" fill="#4B0082"/>
  <rect x="9" y="8" width="1" height="4" fill="#4B0082"/>
  <rect x="22" y="8" width="1" height="4" fill="#4B0082"/>
  
  <!-- 多眼 -->
  <rect x="11" y="8" width="2" height="1" fill="#FFD700"/>
  <rect x="19" y="8" width="2" height="1" fill="#FFD700"/>
  <rect x="13" y="9" width="2" height="2" fill="#FFFF00"/>
  <rect x="17" y="9" width="2" height="2" fill="#FFFF00"/>
  <rect x="14" y="10" width="1" height="1" fill="#8B0000"/>
  <rect x="18" y="10" width="1" height="1" fill="#8B0000"/>
  <rect x="12" y="11" width="1" height="1" fill="#FFD700"/>
  <rect x="19" y="11" width="1" height="1" fill="#FFD700"/>
  
  <!-- 胡须 -->
  <rect x="13" y="12" width="6" height="1" fill="#C0C0C0"/>
  <rect x="12" y="13" width="8" height="1" fill="#DCDCDC"/>
  
  <!-- 道袍 -->
  <rect x="9" y="14" width="14" height="9" fill="#4B0082"/>
  <rect x="8" y="15" width="1" height="7" fill="#4B0082"/>
  <rect x="23" y="15" width="1" height="7" fill="#4B0082"/>
  
  <!-- 袍上的眼 -->
  <rect x="11" y="15" width="1" height="1" fill="#FFFF00"/>
  <rect x="20" y="15" width="1" height="1" fill="#FFFF00"/>
  <rect x="13" y="16" width="1" height="1" fill="#FFD700"/>
  <rect x="18" y="16" width="1" height="1" fill="#FFD700"/>
  <rect x="15" y="17" width="2" height="1" fill="#FFFF00"/>
  <rect x="12" y="18" width="1" height="1" fill="#FFD700"/>
  <rect x="19" y="18" width="1" height="1" fill="#FFD700"/>
  <rect x="14" y="19" width="1" height="1" fill="#FFFF00"/>
  <rect x="17" y="19" width="1" height="1" fill="#FFFF00"/>
  <rect x="11" y="20" width="1" height="1" fill="#FFD700"/>
  <rect x="20" y="20" width="1" height="1" fill="#FFD700"/>
  
  <!-- 道袍装饰 -->
  <rect x="13" y="17" width="6" height="3" fill="#8B008B"/>
  <rect x="14" y="18" width="4" height="1" fill="#9400D3"/>
  
  <!-- 腰带 -->
  <rect x="10" y="22" width="12" height="1" fill="#FFD700"/>
  
  <!-- 下摆 -->
  <rect x="10" y="23" width="12" height="4" fill="#4B0082"/>
  <rect x="11" y="24" width="1" height="1" fill="#FFFF00"/>
  <rect x="20" y="24" width="1" height="1" fill="#FFFF00"/>
  <rect x="15" y="25" width="2" height="1" fill="#FFD700"/>
  
  <!-- 腿部 -->
  <rect x="11" y="27" width="4" height="2" fill="#8B008B"/>
  <rect x="17" y="27" width="4" height="2" fill="#8B008B"/>
  
  <!-- 道靴 -->
  <rect x="10" y="29" width="5" height="2" fill="#2F4F4F"/>
  <rect x="17" y="29" width="5" height="2" fill="#2F4F4F"/>
</svg>