<svg xmlns="http://www.w3.org/2000/svg" viewBox="0 0 32 32" width="64" height="64">
  <rect width="32" height="32" fill="none"/>
  <!-- 灵虚子 - 道士 -->
  <!-- 道冠 -->
  <rect x="10" y="7" width="12" height="2" fill="#87CEEB"/>
  <rect x="9" y="8" width="1" height="1" fill="#4682B4"/>
  <rect x="22" y="8" width="1" height="1" fill="#4682B4"/>
  <rect x="14" y="6" width="4" height="1" fill="#FFD700"/>
  
  <!-- 发髻 -->
  <rect x="15" y="5" width="2" height="2" fill="#2F4F4F"/>
  
  <!-- 头部 -->
  <rect x="11" y="9" width="10" height="5" fill="#FFE4C4"/>
  <rect x="10" y="10" width="1" height="3" fill="#FFE4C4"/>
  <rect x="21" y="10" width="1" height="3" fill="#FFE4C4"/>
  
  <!-- 眼睛 - 慈祥 -->
  <rect x="13" y="11" width="2" height="1" fill="#000000"/>
  <rect x="17" y="11" width="2" height="1" fill="#000000"/>
  
  <!-- 胡须 -->
  <rect x="14" y="13" width="4" height="1" fill="#DCDCDC"/>
  <rect x="13" y="14" width="6" height="1" fill="#F5F5F5"/>
  <rect x="12" y="15" width="8" height="1" fill="#DCDCDC"/>
  
  <!-- 道袍 - 青色 -->
  <rect x="10" y="16" width="12" height="8" fill="#87CEEB"/>
  <rect x="9" y="17" width="1" height="6" fill="#87CEEB"/>
  <rect x="22" y="17" width="1" height="6" fill="#87CEEB"/>
  
  <!-- 道袍装饰 -->
  <rect x="12" y="17" width="8" height="1" fill="#B0E0E6"/>
  <rect x="13" y="18" width="6" height="4" fill="#ADD8E6"/>
  <rect x="14" y="19" width="4" height="2" fill="#E0FFFF"/>
  <rect x="15" y="20" width="2" height="1" fill="#FFFFFF"/>
  
  <!-- 八卦图案 -->
  <rect x="14" y="22" width="4" height="1" fill="#FFD700"/>
  <rect x="15" y="21" width="2" height="1" fill="#FFD700"/>
  <rect x="15" y="23" width="2" height="1" fill="#FFD700"/>
  
  <!-- 腰带 -->
  <rect x="11" y="23" width="10" height="1" fill="#FFD700"/>
  
  <!-- 下摆 -->
  <rect x="10" y="24" width="12" height="4" fill="#87CEEB"/>
  <rect x="11" y="25" width="10" height="2" fill="#B0E0E6"/>
  
  <!-- 腿部 -->
  <rect x="11" y="28" width="4" height="2" fill="#4682B4"/>
  <rect x="17" y="28" width="4" height="2" fill="#4682B4"/>
  
  <!-- 道靴 -->
  <rect x="10" y="30" width="5" height="1" fill="#2F4F4F"/>
  <rect x="17" y="30" width="5" height="1" fill="#2F4F4F"/>
  
  <!-- 拂尘 -->
  <rect x="24" y="14" width="1" height="10" fill="#8B4513"/>
  <rect x="23" y="13" width="1" height="1" fill="#F5F5F5"/>
  <rect x="25" y="13" width="1" height="1" fill="#F5F5F5"/>
  <rect x="23" y="12" width="3" height="1" fill="#DCDCDC"/>
  <rect x="24" y="11" width="2" height="1" fill="#FFFFFF"/>
</svg>