<svg xmlns="http://www.w3.org/2000/svg" viewBox="0 0 32 32" width="64" height="64">
  <rect width="32" height="32" fill="none"/>
  <!-- 疯虎 -->
  <!-- 耳朵 -->
  <rect x="9" y="7" width="2" height="3" fill="#FF4500"/>
  <rect x="21" y="7" width="2" height="3" fill="#FF4500"/>
  
  <!-- 头部 -->
  <rect x="10" y="9" width="12" height="6" fill="#FF4500"/>
  <rect x="9" y="10" width="1" height="4" fill="#FF4500"/>
  <rect x="22" y="10" width="1" height="4" fill="#FF4500"/>
  
  <!-- 王字 - 狂暴 -->
  <rect x="12" y="10" width="8" height="1" fill="#2F4F4F"/>
  <rect x="15" y="11" width="2" height="1" fill="#2F4F4F"/>
  <rect x="12" y="12" width="8" height="1" fill="#2F4F4F"/>
  
  <!-- 眼睛 - 疯狂 -->
  <rect x="12" y="13" width="3" height="2" fill="#FFFF00"/>
  <rect x="17" y="13" width="3" height="2" fill="#FFFF00"/>
  <rect x="13" y="13" width="1" height="1" fill="#FF0000"/>
  <rect x="18" y="13" width="1" height="1" fill="#FF0000"/>
  
  <!-- 血迹 -->
  <rect x="11" y="14" width="1" height="1" fill="#8B0000"/>
  <rect x="20" y="14" width="1" height="1" fill="#8B0000"/>
  
  <!-- 身体 - 破损铠甲 -->
  <rect x="9" y="15" width="14" height="8" fill="#8B4513"/>
  <rect x="8" y="16" width="1" height="6" fill="#8B4513"/>
  <rect x="23" y="16" width="1" height="6" fill="#8B4513"/>
  
  <!-- 破甲 -->
  <rect x="11" y="16" width="4" height="3" fill="#696969"/>
  <rect x="17" y="16" width="4" height="3" fill="#696969"/>
  <rect x="12" y="17" width="2" height="1" fill="#2F4F4F"/>
  <rect x="18" y="17" width="2" height="1" fill="#2F4F4F"/>
  
  <!-- 虎纹 -->
  <rect x="10" y="17" width="1" height="5" fill="#2F4F4F"/>
  <rect x="21" y="17" width="1" height="5" fill="#2F4F4F"/>
  <rect x="14" y="19" width="1" height="2" fill="#000000"/>
  <rect x="17" y="19" width="1" height="2" fill="#000000"/>
  
  <!-- 血纹 -->
  <rect x="13" y="20" width="6" height="2" fill="#DC143C"/>
  <rect x="14" y="21" width="1" height="1" fill="#8B0000"/>
  <rect x="17" y="21" width="1" height="1" fill="#8B0000"/>
  
  <!-- 腿部 -->
  <rect x="10" y="23" width="5" height="5" fill="#FF4500"/>
  <rect x="17" y="23" width="5" height="5" fill="#FF4500"/>
  <rect x="11" y="24" width="3" height="3" fill="#FF6347"/>
  <rect x="18" y="24" width="3" height="3" fill="#FF6347"/>
  
  <!-- 利爪 -->
  <rect x="9" y="28" width="6" height="2" fill="#2F4F4F"/>
  <rect x="17" y="28" width="6" height="2" fill="#2F4F4F"/>
  <rect x="10" y="29" width="1" height="1" fill="#FFFFFF"/>
  <rect x="12" y="29" width="1" height="1" fill="#FFFFFF"/>
  <rect x="14" y="29" width="1" height="1" fill="#FFFFFF"/>
  <rect x="18" y="29" width="1" height="1" fill="#FFFFFF"/>
  <rect x="20" y="29" width="1" height="1" fill="#FFFFFF"/>
  <rect x="22" y="29" width="1" height="1" fill="#FFFFFF"/>
  
  <!-- 雷鼓提示 -->
  <rect x="24" y="14" width="4" height="6" fill="#8B4513"/>
  <rect x="25" y="13" width="2" height="1" fill="#FFD700"/>
  <rect x="25" y="20" width="2" height="1" fill="#FFD700"/>
  <rect x="26" y="16" width="1" height="2" fill="#FFFF00"/>
</svg>