<svg xmlns="http://www.w3.org/2000/svg" viewBox="0 0 32 32" width="64" height="64">
  <rect width="32" height="32" fill="none"/>
  <!-- 罗刹女 - 铁扇公主 -->
  <!-- 头发 -->
  <rect x="9" y="6" width="14" height="3" fill="#2F4F4F"/>
  <rect x="8" y="7" width="1" height="2" fill="#2F4F4F"/>
  <rect x="23" y="7" width="1" height="2" fill="#2F4F4F"/>
  <rect x="10" y="5" width="3" height="1" fill="#1a1a1a"/>
  <rect x="19" y="5" width="3" height="1" fill="#1a1a1a"/>
  
  <!-- 发饰 -->
  <rect x="14" y="5" width="4" height="2" fill="#FF1493"/>
  <rect x="15" y="4" width="2" height="1" fill="#FFB6C1"/>
  
  <!-- 头部 -->
  <rect x="11" y="9" width="10" height="5" fill="#FFE4E1"/>
  <rect x="10" y="10" width="1" height="3" fill="#FFE4E1"/>
  <rect x="21" y="10" width="1" height="3" fill="#FFE4E1"/>
  
  <!-- 眼睛 - 美艳 -->
  <rect x="13" y="11" width="2" height="2" fill="#8B4513"/>
  <rect x="17" y="11" width="2" height="2" fill="#8B4513"/>
  <rect x="13" y="10" width="2" height="1" fill="#2F4F4F"/>
  <rect x="17" y="10" width="2" height="1" fill="#2F4F4F"/>
  
  <!-- 嘴唇 -->
  <rect x="14" y="13" width="4" height="1" fill="#DC143C"/>
  
  <!-- 身体 - 长裙 -->
  <rect x="10" y="14" width="12" height="8" fill="#FF1493"/>
  <rect x="9" y="15" width="1" height="6" fill="#FF1493"/>
  <rect x="22" y="15" width="1" height="6" fill="#FF1493"/>
  
  <!-- 裙装饰 -->
  <rect x="12" y="15" width="8" height="1" fill="#FFB6C1"/>
  <rect x="13" y="16" width="6" height="3" fill="#FF69B4"/>
  <rect x="14" y="17" width="4" height="1" fill="#FFC0CB"/>
  <rect x="11" y="19" width="2" height="2" fill="#FFB6C1"/>
  <rect x="19" y="19" width="2" height="2" fill="#FFB6C1"/>
  <rect x="14" y="20" width="4" height="1" fill="#FFFFFF"/>
  
  <!-- 腰带 -->
  <rect x="11" y="21" width="10" height="1" fill="#FFD700"/>
  
  <!-- 裙摆 -->
  <rect x="9" y="22" width="14" height="5" fill="#FF1493"/>
  <rect x="10" y="23" width="12" height="3" fill="#FF69B4"/>
  <rect x="11" y="24" width="10" height="1" fill="#FFB6C1"/>
  
  <!-- 脚 -->
  <rect x="12" y="27" width="3" height="2" fill="#FFE4E1"/>
  <rect x="17" y="27" width="3" height="2" fill="#FFE4E1"/>
  
  <!-- 绣花鞋 -->
  <rect x="11" y="29" width="4" height="2" fill="#DC143C"/>
  <rect x="17" y="29" width="4" height="2" fill="#DC143C"/>
  
  <!-- 芭蕉扇 -->
  <rect x="24" y="12" width="6" height="8" fill="#228B22"/>
  <rect x="25" y="11" width="5" height="1" fill="#32CD32"/>
  <rect x="25" y="20" width="5" height="1" fill="#32CD32"/>
  <rect x="26" y="13" width="3" height="6" fill="#90EE90"/>
  <rect x="27" y="14" width="1" height="4" fill="#98FB98"/>
  <rect x="23" y="15" width="1" height="4" fill="#8B4513"/>
</svg>