<svg xmlns="http://www.w3.org/2000/svg" viewBox="0 0 32 32" width="64" height="64">
  <rect width="32" height="32" fill="none"/>
  <!-- 赤发鬼 -->
  <!-- 赤红头发 - 狂野 -->
  <rect x="9" y="5" width="14" height="3" fill="#8B0000"/>
  <rect x="8" y="6" width="1" height="2" fill="#DC143C"/>
  <rect x="23" y="6" width="1" height="2" fill="#DC143C"/>
  <rect x="10" y="4" width="3" height="1" fill="#FF0000"/>
  <rect x="19" y="4" width="3" height="1" fill="#FF0000"/>
  <rect x="7" y="7" width="2" height="1" fill="#8B0000"/>
  <rect x="23" y="7" width="2" height="1" fill="#8B0000"/>
  
  <!-- 头部 -->
  <rect x="11" y="8" width="10" height="6" fill="#CD5C5C"/>
  <rect x="10" y="9" width="1" height="4" fill="#CD5C5C"/>
  <rect x="21" y="9" width="1" height="4" fill="#CD5C5C"/>
  
  <!-- 眼睛 - 凶恶 -->
  <rect x="12" y="10" width="3" height="2" fill="#FF0000"/>
  <rect x="17" y="10" width="3" height="2" fill="#FF0000"/>
  <rect x="13" y="11" width="1" height="1" fill="#FFFF00"/>
  <rect x="18" y="11" width="1" height="1" fill="#FFFF00"/>
  
  <!-- 獠牙 -->
  <rect x="13" y="13" width="1" height="1" fill="#FFFFFF"/>
  <rect x="18" y="13" width="1" height="1" fill="#FFFFFF"/>
  
  <!-- 身体 - 破甲 -->
  <rect x="10" y="14" width="12" height="8" fill="#8B4513"/>
  <rect x="9" y="15" width="1" height="6" fill="#8B4513"/>
  <rect x="22" y="15" width="1" height="6" fill="#8B4513"/>
  
  <!-- 铁甲 -->
  <rect x="11" y="15" width="4" height="3" fill="#696969"/>
  <rect x="17" y="15" width="4" height="3" fill="#696969"/>
  <rect x="12" y="16" width="2" height="1" fill="#808080"/>
  <rect x="18" y="16" width="2" height="1" fill="#808080"/>
  
  <!-- 腹部 -->
  <rect x="13" y="18" width="6" height="3" fill="#CD5C5C"/>
  <rect x="14" y="19" width="4" height="1" fill="#8B4513"/>
  
  <!-- 腰甲 -->
  <rect x="11" y="21" width="10" height="1" fill="#696969"/>
  
  <!-- 腿部 -->
  <rect x="11" y="22" width="4" height="5" fill="#8B4513"/>
  <rect x="17" y="22" width="4" height="5" fill="#8B4513"/>
  <rect x="12" y="23" width="2" height="3" fill="#A0522D"/>
  <rect x="18" y="23" width="2" height="3" fill="#A0522D"/>
  
  <!-- 战靴 -->
  <rect x="10" y="27" width="5" height="3" fill="#2F4F4F"/>
  <rect x="17" y="27" width="5" height="3" fill="#2F4F4F"/>
  
  <!-- 火焰长枪 -->
  <rect x="5" y="12" width="2" height="14" fill="#8B4513"/>
  <rect x="4" y="11" width="1" height="1" fill="#DC143C"/>
  <rect x="7" y="11" width="1" height="1" fill="#DC143C"/>
  <rect x="3" y="12" width="2" height="3" fill="#FF0000"/>
  <rect x="7" y="12" width="2" height="3" fill="#FF0000"/>
  <rect x="4" y="10" width="3" height="1" fill="#FFA500"/>
  
  <!-- 火焰特效 -->
  <rect x="2" y="13" width="1" height="1" fill="#FFA500" opacity="0.7"/>
  <rect x="9" y="14" width="1" height="1" fill="#FFA500" opacity="0.7"/>
</svg>