<svg xmlns="http://www.w3.org/2000/svg" viewBox="0 0 32 32" width="64" height="64">
  <rect width="32" height="32" fill="none"/>
  <!-- 夜叉王 -->
  <!-- 角 -->
  <rect x="9" y="5" width="2" height="3" fill="#8B0000"/>
  <rect x="21" y="5" width="2" height="3" fill="#8B0000"/>
  <rect x="8" y="4" width="1" height="2" fill="#DC143C"/>
  <rect x="23" y="4" width="1" height="2" fill="#DC143C"/>
  
  <!-- 头部 - 红色 -->
  <rect x="10" y="7" width="12" height="6" fill="#8B0000"/>
  <rect x="9" y="8" width="1" height="4" fill="#8B0000"/>
  <rect x="22" y="8" width="1" height="4" fill="#8B0000"/>
  
  <!-- 第三只眼 -->
  <rect x="15" y="8" width="2" height="1" fill="#FF0000"/>
  
  <!-- 眼睛 - 凶残 -->
  <rect x="12" y="10" width="3" height="2" fill="#FFFF00"/>
  <rect x="17" y="10" width="3" height="2" fill="#FFFF00"/>
  <rect x="13" y="11" width="1" height="1" fill="#000000"/>
  <rect x="18" y="11" width="1" height="1" fill="#000000"/>
  
  <!-- 獠牙 -->
  <rect x="12" y="12" width="1" height="2" fill="#FFFFFF"/>
  <rect x="19" y="12" width="1" height="2" fill="#FFFFFF"/>
  <rect x="14" y="13" width="1" height="1" fill="#FFFFFF"/>
  <rect x="17" y="13" width="1" height="1" fill="#FFFFFF"/>
  
  <!-- 身体 - 魔甲 -->
  <rect x="9" y="13" width="14" height="9" fill="#2F4F4F"/>
  <rect x="8" y="14" width="1" height="7" fill="#2F4F4F"/>
  <rect x="23" y="14" width="1" height="7" fill="#2F4F4F"/>
  
  <!-- 魔甲装饰 -->
  <rect x="11" y="14" width="4" height="3" fill="#8B0000"/>
  <rect x="17" y="14" width="4" height="3" fill="#8B0000"/>
  <rect x="12" y="15" width="2" height="1" fill="#DC143C"/>
  <rect x="18" y="15" width="2" height="1" fill="#DC143C"/>
  <rect x="13" y="17" width="6" height="4" fill="#696969"/>
  <rect x="14" y="18" width="4" height="2" fill="#808080"/>
  
  <!-- 护肩 - 骨刺 -->
  <rect x="7" y="13" width="2" height="3" fill="#DCDCDC"/>
  <rect x="23" y="13" width="2" height="3" fill="#DCDCDC"/>
  <rect x="6" y="14" width="1" height="1" fill="#FFFFFF"/>
  <rect x="25" y="14" width="1" height="1" fill="#FFFFFF"/>
  
  <!-- 腰带 -->
  <rect x="10" y="21" width="12" height="1" fill="#8B0000"/>
  
  <!-- 腿部 -->
  <rect x="10" y="22" width="5" height="5" fill="#8B0000"/>
  <rect x="17" y="22" width="5" height="5" fill="#8B0000"/>
  <rect x="11" y="23" width="3" height="3" fill="#A52A2A"/>
  <rect x="18" y="23" width="3" height="3" fill="#A52A2A"/>
  
  <!-- 战靴 -->
  <rect x="9" y="27" width="6" height="3" fill="#2F4F4F"/>
  <rect x="17" y="27" width="6" height="3" fill="#2F4F4F"/>
  
  <!-- 火焰长枪 -->
  <rect x="5" y="11" width="2" height="14" fill="#8B4513"/>
  <rect x="4" y="10" width="1" height="1" fill="#DC143C"/>
  <rect x="7" y="10" width="1" height="1" fill="#DC143C"/>
  <rect x="3" y="11" width="2" height="3" fill="#FF0000"/>
  <rect x="7" y="11" width="2" height="3" fill="#FF0000"/>
  <rect x="4" y="9" width="3" height="1" fill="#FFA500"/>
  
  <!-- 火焰特效 -->
  <rect x="2" y="12" width="1" height="1" fill="#FFA500" opacity="0.8"/>
  <rect x="9" y="13" width="1" height="1" fill="#FFA500" opacity="0.7"/>
  <rect x="3" y="14" width="1" height="1" fill="#FF4500" opacity="0.6"/>
</svg>