<svg xmlns="http://www.w3.org/2000/svg" viewBox="0 0 32 32" width="64" height="64">
  <rect width="32" height="32" fill="none"/>
  <!-- 黑熊精 -->
  <!-- 耳朵 -->
  <rect x="9" y="9" width="3" height="3" fill="#1a1a1a"/>
  <rect x="20" y="9" width="3" height="3" fill="#1a1a1a"/>
  <rect x="10" y="10" width="1" height="1" fill="#4a4a4a"/>
  <rect x="21" y="10" width="1" height="1" fill="#4a4a4a"/>
  
  <!-- 头部 -->
  <rect x="10" y="11" width="12" height="7" fill="#1a1a1a"/>
  <rect x="9" y="12" width="1" height="5" fill="#1a1a1a"/>
  <rect x="22" y="12" width="1" height="5" fill="#1a1a1a"/>
  
  <!-- 眼睛 - 红色凶光 -->
  <rect x="12" y="13" width="3" height="2" fill="#FF0000"/>
  <rect x="17" y="13" width="3" height="2" fill="#FF0000"/>
  <rect x="13" y="14" width="1" height="1" fill="#FFFF00"/>
  <rect x="18" y="14" width="1" height="1" fill="#FFFF00"/>
  
  <!-- 鼻子 -->
  <rect x="14" y="16" width="4" height="2" fill="#4a4a4a"/>
  <rect x="15" y="16" width="1" height="1" fill="#000000"/>
  <rect x="16" y="16" width="1" height="1" fill="#000000"/>
  
  <!-- 身体 - 强壮 -->
  <rect x="9" y="18" width="14" height="8" fill="#1a1a1a"/>
  <rect x="8" y="19" width="1" height="6" fill="#1a1a1a"/>
  <rect x="23" y="19" width="1" height="6" fill="#1a1a1a"/>
  <rect x="11" y="20" width="3" height="3" fill="#2a2a2a"/>
  <rect x="18" y="20" width="3" height="3" fill="#2a2a2a"/>
  
  <!-- 袈裟 -->
  <rect x="10" y="19" width="12" height="1" fill="#8B4513"/>
  <rect x="13" y="22" width="6" height="3" fill="#8B4513"/>
  <rect x="14" y="23" width="4" height="1" fill="#CD853F"/>
  
  <!-- 腿部 -->
  <rect x="10" y="26" width="4" height="4" fill="#1a1a1a"/>
  <rect x="18" y="26" width="4" height="4" fill="#1a1a1a"/>
  <rect x="11" y="27" width="2" height="2" fill="#2a2a2a"/>
  <rect x="19" y="27" width="2" height="2" fill="#2a2a2a"/>
  
  <!-- 爪子 -->
  <rect x="9" y="29" width="6" height="2" fill="#4a4a4a"/>
  <rect x="17" y="29" width="6" height="2" fill="#4a4a4a"/>
  <rect x="10" y="30" width="1" height="1" fill="#FFFFFF"/>
  <rect x="12" y="30" width="1" height="1" fill="#FFFFFF"/>
  <rect x="14" y="30" width="1" height="1" fill="#FFFFFF"/>
  <rect x="18" y="30" width="1" height="1" fill="#FFFFFF"/>
  <rect x="20" y="30" width="1" height="1" fill="#FFFFFF"/>
  <rect x="22" y="30" width="1" height="1" fill="#FFFFFF"/>
</svg>