<svg xmlns="http://www.w3.org/2000/svg" viewBox="0 0 32 32" width="64" height="64">
  <rect width="32" height="32" fill="none"/>
  <!-- 紫蛛 - 蜘蛛精首领 -->
  <!-- 头发 -->
  <rect x="9" y="6" width="14" height="3" fill="#4B0082"/>
  <rect x="8" y="7" width="1" height="2" fill="#4B0082"/>
  <rect x="23" y="7" width="1" height="2" fill="#4B0082"/>
  <rect x="10" y="5" width="3" height="1" fill="#800080"/>
  <rect x="19" y="5" width="3" height="1" fill="#800080"/>
  
  <!-- 头部 - 美艳 -->
  <rect x="11" y="9" width="10" height="5" fill="#FFE4E1"/>
  <rect x="10" y="10" width="1" height="3" fill="#FFE4E1"/>
  <rect x="21" y="10" width="1" height="3" fill="#FFE4E1"/>
  
  <!-- 眼睛 - 魅惑 -->
  <rect x="13" y="11" width="2" height="2" fill="#9400D3"/>
  <rect x="17" y="11" width="2" height="2" fill="#9400D3"/>
  <rect x="13" y="11" width="1" height="1" fill="#FF00FF"/>
  <rect x="17" y="11" width="1" height="1" fill="#FF00FF"/>
  
  <!-- 嘴唇 -->
  <rect x="14" y="13" width="4" height="1" fill="#DC143C"/>
  
  <!-- 身体 - 紫色长裙 -->
  <rect x="10" y="14" width="12" height="6" fill="#800080"/>
  <rect x="9" y="15" width="1" height="4" fill="#800080"/>
  <rect x="22" y="15" width="1" height="4" fill="#800080"/>
  
  <!-- 装饰花纹 -->
  <rect x="12" y="15" width="8" height="1" fill="#9400D3"/>
  <rect x="13" y="16" width="6" height="2" fill="#9370DB"/>
  <rect x="14" y="17" width="4" height="1" fill="#FF00FF"/>
  <rect x="11" y="18" width="2" height="1" fill="#DDA0DD"/>
  <rect x="19" y="18" width="2" height="1" fill="#DDA0DD"/>
  
  <!-- 蜘蛛腹部特征 -->
  <rect x="9" y="20" width="14" height="5" fill="#4B0082"/>
  <rect x="8" y="21" width="1" height="3" fill="#4B0082"/>
  <rect x="23" y="21" width="1" height="3" fill="#4B0082"/>
  <rect x="11" y="21" width="10" height="3" fill="#8B008B"/>
  <rect x="13" y="22" width="6" height="1" fill="#9370DB"/>
  
  <!-- 蜘蛛腿 (8条) -->
  <!-- 左侧 -->
  <rect x="6" y="17" width="3" height="1" fill="#4B0082"/>
  <rect x="5" y="18" width="2" height="2" fill="#8B008B"/>
  <rect x="6" y="19" width="3" height="1" fill="#4B0082"/>
  <rect x="5" y="20" width="2" height="2" fill="#8B008B"/>
  <rect x="7" y="21" width="2" height="1" fill="#4B0082"/>
  <rect x="6" y="22" width="2" height="2" fill="#8B008B"/>
  <rect x="7" y="23" width="2" height="1" fill="#4B0082"/>
  <rect x="6" y="24" width="2" height="2" fill="#8B008B"/>
  
  <!-- 右侧 -->
  <rect x="23" y="17" width="3" height="1" fill="#4B0082"/>
  <rect x="25" y="18" width="2" height="2" fill="#8B008B"/>
  <rect x="23" y="19" width="3" height="1" fill="#4B0082"/>
  <rect x="25" y="20" width="2" height="2" fill="#8B008B"/>
  <rect x="23" y="21" width="2" height="1" fill="#4B0082"/>
  <rect x="24" y="22" width="2" height="2" fill="#8B008B"/>
  <rect x="23" y="23" width="2" height="1" fill="#4B0082"/>
  <rect x="24" y="24" width="2" height="2" fill="#8B008B"/>
  
  <!-- 蛛丝特效 -->
  <rect x="8" y="13" width="2" height="1" fill="#E6E6FA" opacity="0.7"/>
  <rect x="22" y="13" width="2" height="1" fill="#E6E6FA" opacity="0.7"/>
  <rect x="7" y="16" width="1" height="2" fill="#FFFFFF" opacity="0.6"/>
  <rect x="24" y="16" width="1" height="2" fill="#FFFFFF" opacity="0.6"/>
  <rect x="6" y="25" width="2" height="1" fill="#E6E6FA" opacity="0.5"/>
  <rect x="24" y="25" width="2" height="1" fill="#E6E6FA" opacity="0.5"/>
</svg>