<svg xmlns="http://www.w3.org/2000/svg" viewBox="0 0 32 32" width="64" height="64">
  <rect width="32" height="32" fill="none"/>
  <!-- 黄眉大王 -->
  <!-- 头发 -->
  <rect x="10" y="6" width="12" height="2" fill="#8B4513"/>
  <rect x="9" y="7" width="1" height="1" fill="#A0522D"/>
  <rect x="22" y="7" width="1" height="1" fill="#A0522D"/>
  
  <!-- 黄色眉毛 - 特征 -->
  <rect x="11" y="9" width="4" height="1" fill="#F4A460"/>
  <rect x="17" y="9" width="4" height="1" fill="#F4A460"/>
  <rect x="10" y="10" width="5" height="1" fill="#DAA520"/>
  <rect x="17" y="10" width="5" height="1" fill="#DAA520"/>
  
  <!-- 头部 -->
  <rect x="11" y="8" width="10" height="6" fill="#FFE4C4"/>
  <rect x="10" y="9" width="1" height="4" fill="#FFE4C4"/>
  <rect x="21" y="9" width="1" height="4" fill="#FFE4C4"/>
  
  <!-- 眼睛 - 狡猾 -->
  <rect x="12" y="11" width="2" height="2" fill="#8B4513"/>
  <rect x="18" y="11" width="2" height="2" fill="#8B4513"/>
  <rect x="13" y="12" width="1" height="1" fill="#FFD700"/>
  <rect x="19" y="12" width="1" height="1" fill="#FFD700"/>
  
  <!-- 嘴 -->
  <rect x="14" y="13" width="4" height="1" fill="#8B4513"/>
  
  <!-- 身体 - 袈裟 -->
  <rect x="10" y="14" width="12" height="8" fill="#F4A460"/>
  <rect x="9" y="15" width="1" height="6" fill="#F4A460"/>
  <rect x="22" y="15" width="1" height="6" fill="#F4A460"/>
  
  <!-- 袈裟装饰 -->
  <rect x="11" y="15" width="10" height="1" fill="#DAA520"/>
  <rect x="12" y="16" width="8" height="4" fill="#CD853F"/>
  <rect x="13" y="17" width="6" height="2" fill="#DEB887"/>
  <rect x="14" y="18" width="4" height="1" fill="#F5DEB3"/>
  
  <!-- 佛珠 -->
  <rect x="11" y="20" width="2" height="1" fill="#8B4513"/>
  <rect x="13" y="20" width="1" height="1" fill="#A0522D"/>
  <rect x="14" y="20" width="2" height="1" fill="#8B4513"/>
  <rect x="16" y="20" width="1" height="1" fill="#A0522D"/>
  <rect x="17" y="20" width="2" height="1" fill="#8B4513"/>
  <rect x="19" y="20" width="2" height="1" fill="#8B4513"/>
  
  <!-- 腰带 -->
  <rect x="11" y="21" width="10" height="1" fill="#FFD700"/>
  
  <!-- 下摆 -->
  <rect x="10" y="22" width="12" height="4" fill="#F4A460"/>
  <rect x="11" y="23" width="10" height="2" fill="#DEB887"/>
  
  <!-- 腿部 -->
  <rect x="11" y="26" width="4" height="3" fill="#CD853F"/>
  <rect x="17" y="26" width="4" height="3" fill="#CD853F"/>
  
  <!-- 僧鞋 -->
  <rect x="10" y="29" width="5" height="2" fill="#8B4513"/>
  <rect x="17" y="29" width="5" height="2" fill="#8B4513"/>
  
  <!-- 狼牙棒 -->
  <rect x="24" y="12" width="2" height="12" fill="#8B4513"/>
  <rect x="23" y="11" width="1" height="1" fill="#696969"/>
  <rect x="26" y="11" width="1" height="1" fill="#696969"/>
  <rect x="23" y="12" width="1" height="2" fill="#808080"/>
  <rect x="26" y="12" width="1" height="2" fill="#808080"/>
  <rect x="23" y="14" width="1" height="1" fill="#696969"/>
  <rect x="26" y="14" width="1" height="1" fill="#696969"/>
  <rect x="24" y="10" width="2" height="1" fill="#A0522D"/>
</svg>