<svg xmlns="http://www.w3.org/2000/svg" viewBox="0 0 24 24" width="48" height="48">
  <rect width="24" height="24" fill="none"/>
  <!-- 牛兵 -->
  <!-- 牛角 -->
  <rect x="7" y="5" width="2" height="2" fill="#654321"/>
  <rect x="15" y="5" width="2" height="2" fill="#654321"/>
  
  <!-- 头部 -->
  <rect x="8" y="7" width="8" height="4" fill="#8B4513"/>
  <rect x="7" y="8" width="1" height="2" fill="#8B4513"/>
  <rect x="16" y="8" width="1" height="2" fill="#8B4513"/>
  
  <!-- 眼睛 -->
  <rect x="9" y="8" width="2" height="1" fill="#FF0000"/>
  <rect x="13" y="8" width="2" height="1" fill="#FF0000"/>
  
  <!-- 鼻环 -->
  <rect x="11" y="10" width="2" height="1" fill="#FFD700"/>
  
  <!-- 身体 - 铠甲 -->
  <rect x="8" y="11" width="8" height="4" fill="#696969"/>
  <rect x="7" y="12" width="1" height="2" fill="#696969"/>
  <rect x="16" y="12" width="1" height="2" fill="#696969"/>
  
  <!-- 护甲 -->
  <rect x="9" y="12" width="6" height="2" fill="#808080"/>
  <rect x="10" y="13" width="4" height="1" fill="#A9A9A9"/>
  
  <!-- 腿部 -->
  <rect x="9" y="15" width="2" height="3" fill="#8B4513"/>
  <rect x="13" y="15" width="2" height="3" fill="#8B4513"/>
  
  <!-- 蹄子 -->
  <rect x="8" y="18" width="3" height="2" fill="#2F4F4F"/>
  <rect x="13" y="18" width="3" height="2" fill="#2F4F4F"/>
  
  <!-- 武器 - 斧头 -->
  <rect x="17" y="10" width="1" height="6" fill="#8B4513"/>
  <rect x="16" y="9" width="3" height="2" fill="#696969"/>
</svg>