<svg xmlns="http://www.w3.org/2000/svg" viewBox="0 0 28 28" width="56" height="56">
  <rect width="28" height="28" fill="none"/>
  <!-- 蜈蚣统领 - 精英 -->
  <!-- 头部 -->
  <rect x="6" y="11" width="6" height="4" fill="#B8860B"/>
  <rect x="5" y="12" width="1" height="2" fill="#DAA520"/>
  
  <!-- 触须 -->
  <rect x="3" y="12" width="2" height="1" fill="#CD853F"/>
  <rect x="2" y="13" width="2" height="1" fill="#DAA520"/>
  
  <!-- 眼睛 -->
  <rect x="7" y="12" width="2" height="1" fill="#FF0000"/>
  <rect x="9" y="13" width="1" height="1" fill="#FFFF00"/>
  
  <!-- 蜈蚣身体节段 -->
  <rect x="12" y="11" width="3" height="4" fill="#B8860B"/>
  <rect x="15" y="11" width="3" height="4" fill="#CD853F"/>
  <rect x="18" y="11" width="3" height="4" fill="#B8860B"/>
  <rect x="21" y="12" width="2" height="2" fill="#CD853F"/>
  
  <!-- 甲壳纹理 -->
  <rect x="13" y="12" width="1" height="1" fill="#DAA520"/>
  <rect x="16" y="12" width="1" height="1" fill="#DAA520"/>
  <rect x="19" y="12" width="1" height="1" fill="#DAA520"/>
  
  <!-- 蜈蚣腿 - 左侧 -->
  <rect x="5" y="15" width="2" height="1" fill="#8B6914"/>
  <rect x="4" y="16" width="2" height="1" fill="#A0522D"/>
  <rect x="10" y="15" width="2" height="1" fill="#8B6914"/>
  <rect x="9" y="16" width="2" height="1" fill="#A0522D"/>
  <rect x="13" y="15" width="2" height="1" fill="#8B6914"/>
  <rect x="12" y="16" width="2" height="1" fill="#A0522D"/>
  <rect x="16" y="15" width="2" height="1" fill="#8B6914"/>
  <rect x="15" y="16" width="2" height="1" fill="#A0522D"/>
  <rect x="19" y="15" width="2" height="1" fill="#8B6914"/>
  <rect x="18" y="16" width="2" height="1" fill="#A0522D"/>
  
  <!-- 蜈蚣腿 - 右侧 -->
  <rect x="5" y="10" width="2" height="1" fill="#8B6914"/>
  <rect x="4" y="9" width="2" height="1" fill="#A0522D"/>
  <rect x="10" y="10" width="2" height="1" fill="#8B6914"/>
  <rect x="9" y="9" width="2" height="1" fill="#A0522D"/>
  <rect x="13" y="10" width="2" height="1" fill="#8B6914"/>
  <rect x="12" y="9" width="2" height="1" fill="#A0522D"/>
  <rect x="16" y="10" width="2" height="1" fill="#8B6914"/>
  <rect x="15" y="9" width="2" height="1" fill="#A0522D"/>
  <rect x="19" y="10" width="2" height="1" fill="#8B6914"/>
  <rect x="18" y="9" width="2" height="1" fill="#A0522D"/>
</svg>