<svg xmlns="http://www.w3.org/2000/svg" viewBox="0 0 28 28" width="56" height="56">
  <rect width="28" height="28" fill="none"/>
  <!-- 龙卫 - 精英 -->
  <!-- 龙角 -->
  <rect x="7" y="4" width="2" height="3" fill="#00CED1"/>
  <rect x="19" y="4" width="2" height="3" fill="#00CED1"/>
  <rect x="6" y="3" width="1" height="2" fill="#40E0D0"/>
  <rect x="21" y="3" width="1" height="2" fill="#40E0D0"/>
  
  <!-- 龙头 -->
  <rect x="8" y="6" width="12" height="6" fill="#00CED1"/>
  <rect x="7" y="7" width="1" height="4" fill="#00CED1"/>
  <rect x="20" y="7" width="1" height="4" fill="#00CED1"/>
  
  <!-- 龙眼 -->
  <rect x="10" y="8" width="2" height="2" fill="#FFD700"/>
  <rect x="16" y="8" width="2" height="2" fill="#FFD700"/>
  <rect x="11" y="9" width="1" height="1" fill="#FF0000"/>
  <rect x="17" y="9" width="1" height="1" fill="#FF0000"/>
  
  <!-- 龙须 -->
  <rect x="6" y="10" width="2" height="1" fill="#40E0D0"/>
  <rect x="20" y="10" width="2" height="1" fill="#40E0D0"/>
  <rect x="5" y="11" width="2" height="2" fill="#48D1CC"/>
  <rect x="21" y="11" width="2" height="2" fill="#48D1CC"/>
  
  <!-- 身体 - 龙鳞甲 -->
  <rect x="7" y="12" width="14" height="8" fill="#00CED1"/>
  <rect x="6" y="13" width="1" height="6" fill="#00CED1"/>
  <rect x="21" y="13" width="1" height="6" fill="#00CED1"/>
  
  <!-- 龙鳞 -->
  <rect x="8" y="13" width="3" height="2" fill="#40E0D0"/>
  <rect x="11" y="14" width="3" height="2" fill="#40E0D0"/>
  <rect x="14" y="13" width="3" height="2" fill="#40E0D0"/>
  <rect x="17" y="14" width="3" height="2" fill="#40E0D0"/>
  <rect x="9" y="16" width="2" height="2" fill="#48D1CC"/>
  <rect x="12" y="17" width="2" height="2" fill="#48D1CC"/>
  <rect x="15" y="16" width="2" height="2" fill="#48D1CC"/>
  <rect x="18" y="17" width="2" height="2" fill="#48D1CC"/>
  
  <!-- 护甲装饰 -->
  <rect x="11" y="18" width="6" height="1" fill="#20B2AA"/>
  <rect x="12" y="19" width="4" height="1" fill="#5F9EA0"/>
  
  <!-- 腿部 - 龙爪 -->
  <rect x="8" y="20" width="5" height="4" fill="#00CED1"/>
  <rect x="15" y="20" width="5" height="4" fill="#00CED1"/>
  <rect x="9" y="21" width="3" height="2" fill="#40E0D0"/>
  <rect x="16" y="21" width="3" height="2" fill="#40E0D0"/>
  
  <!-- 龙爪 -->
  <rect x="7" y="24" width="6" height="2" fill="#20B2AA"/>
  <rect x="15" y="24" width="6" height="2" fill="#20B2AA"/>
  <rect x="8" y="25" width="1" height="1" fill="#FFFFFF"/>
  <rect x="10" y="25" width="1" height="1" fill="#FFFFFF"/>
  <rect x="12" y="25" width="1" height="1" fill="#FFFFFF"/>
  <rect x="16" y="25" width="1" height="1" fill="#FFFFFF"/>
  <rect x="18" y="25" width="1" height="1" fill="#FFFFFF"/>
  <rect x="20" y="25" width="1" height="1" fill="#FFFFFF"/>
  
  <!-- 水波特效 -->
  <rect x="5" y="14" width="1" height="1" fill="#E0FFFF" opacity="0.7"/>
  <rect x="22" y="15" width="1" height="1" fill="#E0FFFF" opacity="0.7"/>
  <rect x="6" y="18" width="1" height="1" fill="#AFEEEE" opacity="0.6"/>
  <rect x="21" y="19" width="1" height="1" fill="#AFEEEE" opacity="0.6"/>
</svg>