<svg xmlns="http://www.w3.org/2000/svg" viewBox="0 0 24 24" width="48" height="48">
  <rect width="24" height="24" fill="none"/>
  <!-- 鼠妖 -->
  <!-- 耳朵 -->
  <rect x="6" y="5" width="3" height="3" fill="#A9A9A9"/>
  <rect x="15" y="5" width="3" height="3" fill="#A9A9A9"/>
  <rect x="7" y="6" width="1" height="1" fill="#C0C0C0"/>
  <rect x="16" y="6" width="1" height="1" fill="#C0C0C0"/>
  
  <!-- 头部 -->
  <rect x="8" y="7" width="8" height="4" fill="#A9A9A9"/>
  <rect x="7" y="8" width="1" height="2" fill="#A9A9A9"/>
  <rect x="16" y="8" width="1" height="2" fill="#A9A9A9"/>
  
  <!-- 眼睛 - 狡诈 -->
  <rect x="9" y="8" width="2" height="1" fill="#FF0000"/>
  <rect x="13" y="8" width="2" height="1" fill="#FF0000"/>
  
  <!-- 鼻子 -->
  <rect x="11" y="10" width="2" height="1" fill="#696969"/>
  
  <!-- 胡须 -->
  <rect x="6" y="9" width="2" height="1" fill="#DCDCDC"/>
  <rect x="16" y="9" width="2" height="1" fill="#DCDCDC"/>
  
  <!-- 身体 -->
  <rect x="8" y="11" width="8" height="4" fill="#A9A9A9"/>
  <rect x="9" y="12" width="2" height="2" fill="#808080"/>
  <rect x="13" y="12" width="2" height="2" fill="#808080"/>
  
  <!-- 腿 -->
  <rect x="8" y="15" width="2" height="3" fill="#A9A9A9"/>
  <rect x="14" y="15" width="2" height="3" fill="#A9A9A9"/>
  
  <!-- 爪子 -->
  <rect x="7" y="18" width="3" height="1" fill="#696969"/>
  <rect x="14" y="18" width="3" height="1" fill="#696969"/>
  
  <!-- 尾巴 -->
  <rect x="16" y="13" width="2" height="1" fill="#A9A9A9"/>
  <rect x="17" y="14" width="2" height="1" fill="#A9A9A9"/>
  <rect x="18" y="15" width="1" height="2" fill="#808080"/>
</svg>