<svg width="32" height="32" viewBox="0 0 32 32" fill="none" xmlns="http://www.w3.org/2000/svg">
  <!-- 金币主体圆形 -->
  <circle cx="16" cy="16" r="14" fill="url(#coinGradient)" stroke="#B89B3C" stroke-width="1.2"/>
  
  <!-- 金币边缘装饰纹路 -->
  <circle cx="16" cy="16" r="13.8" fill="none" stroke="url(#edgePattern)" stroke-width="0.4"/>
  <circle cx="16" cy="16" r="13.2" fill="none" stroke="#FFD700" stroke-width="0.3" opacity="0.7"/>
  
  <!-- 金币中间装饰环 -->
  <circle cx="16" cy="16" r="11" fill="none" stroke="url(#ringGradient)" stroke-width="1.5"/>
  
  <!-- 金币中心装饰：龙纹图案 -->
  <g transform="scale(0.9) translate(1.8, 1.8)">
    <path d="M16 9C14 9 12.5 10.5 12.5 12.5C12.5 14.5 14 16 16 16C18 16 19.5 14.5 19.5 12.5C19.5 10.5 18 9 16 9Z" fill="url(#innerCircleGradient)"/>
    <!-- 龙首 -->
    <path d="M16 10C16.8 10 17.5 10.7 17.5 11.5C17.5 12.3 16.8 13 16 13C15.2 13 14.5 12.3 14.5 11.5C14.5 10.7 15.2 10 16 10Z" fill="url(#dragonHeadGradient)"/>
    <!-- 龙角 -->
    <path d="M15 10L14.5 9.2L15.3 9.5L15 10Z" fill="#B8860B"/>
    <path d="M17 10L17.5 9.2L16.7 9.5L17 10Z" fill="#B8860B"/>
    <!-- 龙眼睛 -->
    <circle cx="15.5" cy="11.2" r="0.2" fill="#000"/>
    <circle cx="16.5" cy="11.2" r="0.2" fill="#000"/>
    <!-- 龙须 -->
    <path d="M15 12.2L14.2 12.8" stroke="#B8860B" stroke-width="0.15"/>
    <path d="M17 12.2L17.8 12.8" stroke="#B8860B" stroke-width="0.15"/>
  </g>
  
  <!-- 金币纹理细节 -->
  <!-- 祥云图案 -->
  <g transform="scale(0.5) translate(8, 8)">
    <path d="M12 18C13 17 14 17 15 18C16 19 16 20 15 21C14 22 13 22 12 21C11 20 11 19 12 18Z" fill="url(#cloudGradient)" opacity="0.6"/>
    <path d="M20 18C21 17 22 17 23 18C24 19 24 20 23 21C22 22 21 22 20 21C19 20 19 19 20 18Z" fill="url(#cloudGradient)" opacity="0.6"/>
    <path d="M12 26C13 25 14 25 15 26C16 27 16 28 15 29C14 30 13 30 12 29C11 28 11 27 12 26Z" fill="url(#cloudGradient)" opacity="0.6"/>
    <path d="M20 26C21 25 22 25 23 26C24 27 24 28 23 29C22 30 21 30 20 29C19 28 19 27 20 26Z" fill="url(#cloudGradient)" opacity="0.6"/>
  </g>
  
  <!-- 环形纹理 -->
  <circle cx="16" cy="16" r="10" fill="none" stroke="#B89B3C" stroke-width="0.2" opacity="0.4"/>
  <circle cx="16" cy="16" r="9" fill="none" stroke="#B89B3C" stroke-width="0.2" opacity="0.4"/>
  <circle cx="16" cy="16" r="8" fill="none" stroke="#B89B3C" stroke-width="0.2" opacity="0.4"/>
  
  <!-- 高光效果 -->
  <path d="M12 8C12 8 10.5 10 10 12C9.5 14 10 16 12 16C14 16 15 14 15 12C15 10 14 8 12 8Z" fill="#FFF" opacity="0.3"/>
  <ellipse cx="10" cy="10" rx="2" ry="1.5" fill="#FFF" opacity="0.2"/>
  <ellipse cx="22" cy="22" rx="1.5" ry="1" fill="#000" opacity="0.1"/>
  
  <!-- 渐变定义 -->
  <defs>
    <!-- 金币主体渐变 -->
    <linearGradient id="coinGradient" x1="4" y1="4" x2="28" y2="28" gradientUnits="userSpaceOnUse">
      <stop stop-color="#FFD700" stop-opacity="1"/>
      <stop offset="0.3" stop-color="#FFC107" stop-opacity="1"/>
      <stop offset="0.5" stop-color="#FFA500" stop-opacity="1"/>
      <stop offset="0.7" stop-color="#FF8C00" stop-opacity="1"/>
      <stop offset="1" stop-color="#B8860B" stop-opacity="1"/>
    </linearGradient>
    
    <!-- 内圆渐变 -->
    <linearGradient id="innerCircleGradient" x1="12" y1="12" x2="20" y2="20" gradientUnits="userSpaceOnUse">
      <stop stop-color="#FFD700" stop-opacity="0.9"/>
      <stop offset="0.5" stop-color="#FFA500" stop-opacity="0.9"/>
      <stop offset="1" stop-color="#B8860B" stop-opacity="0.9"/>
    </linearGradient>
    
    <!-- 龙首渐变 -->
    <linearGradient id="dragonHeadGradient" x1="14" y1="10" x2="18" y2="13" gradientUnits="userSpaceOnUse">
      <stop stop-color="#FFD700" stop-opacity="1"/>
      <stop offset="1" stop-color="#FFA500" stop-opacity="1"/>
    </linearGradient>
    
    <!-- 边缘图案渐变 -->
    <linearGradient id="edgePattern" x1="4" y1="4" x2="28" y2="28" gradientUnits="userSpaceOnUse">
      <stop stop-color="#FFD700" stop-opacity="0.8"/>
      <stop offset="0.5" stop-color="#B8860B" stop-opacity="0.8"/>
      <stop offset="1" stop-color="#FFD700" stop-opacity="0.8"/>
    </linearGradient>
    
    <!-- 环形渐变 -->
    <linearGradient id="ringGradient" x1="5" y1="16" x2="27" y2="16" gradientUnits="userSpaceOnUse">
      <stop stop-color="#FFD700" stop-opacity="0.9"/>
      <stop offset="0.5" stop-color="#B8860B" stop-opacity="0.9"/>
      <stop offset="1" stop-color="#FFD700" stop-opacity="0.9"/>
    </linearGradient>
    
    <!-- 祥云渐变 -->
    <linearGradient id="cloudGradient" x1="11" y1="17" x2="16" y2="22" gradientUnits="userSpaceOnUse">
      <stop stop-color="#FFD700" stop-opacity="1"/>
      <stop offset="1" stop-color="#FFA500" stop-opacity="1"/>
    </linearGradient>
  </defs>
</svg>