<svg xmlns="http://www.w3.org/2000/svg" viewBox="0 0 200 200">
  <defs>
    <linearGradient id="staffGrad" x1="0%" y1="0%" x2="100%" y2="0%">
      <stop offset="0%" style="stop-color:#8B7355;stop-opacity:1" />
      <stop offset="50%" style="stop-color:#D2691E;stop-opacity:1" />
      <stop offset="100%" style="stop-color:#8B7355;stop-opacity:1" />
    </linearGradient>
    <linearGradient id="goldGrad" x1="0%" y1="0%" x2="100%" y2="100%">
      <stop offset="0%" style="stop-color:#FFD700;stop-opacity:1" />
      <stop offset="50%" style="stop-color:#FFA500;stop-opacity:1" />
      <stop offset="100%" style="stop-color:#DAA520;stop-opacity:1" />
    </linearGradient>
    <radialGradient id="ringGrad" cx="50%" cy="50%">
      <stop offset="0%" style="stop-color:#FFD700;stop-opacity:1" />
      <stop offset="70%" style="stop-color:#DAA520;stop-opacity:1" />
      <stop offset="100%" style="stop-color:#B8860B;stop-opacity:1" />
    </radialGradient>
  </defs>
  
  <!-- Staff body -->
  <rect x="92" y="10" width="16" height="170" 
        fill="url(#staffGrad)" stroke="#654321" stroke-width="1.5"/>
  
  <!-- Wood grain details -->
  <path d="M 94 15 Q 100 30, 94 45 Q 100 60, 94 75 Q 100 90, 94 105 Q 100 120, 94 135 Q 100 150, 94 165" 
        stroke="#654321" stroke-width="0.5" fill="none" opacity="0.3"/>
  
  <!-- Top ornament -->
  <rect x="88" y="8" width="24" height="8" rx="2"
        fill="url(#goldGrad)" stroke="#B8860B" stroke-width="1"/>
  <circle cx="100" cy="12" r="2" fill="#8B0000"/>
  
  <!-- Nine rings with connectors -->
  <!-- Ring 1 -->
  <line x1="108" y1="30" x2="118" y2="30" stroke="url(#goldGrad)" stroke-width="2"/>
  <circle cx="125" cy="30" r="7" fill="none" stroke="url(#ringGrad)" stroke-width="2.5"/>
  
  <!-- Ring 2 -->
  <line x1="108" y1="45" x2="118" y2="45" stroke="url(#goldGrad)" stroke-width="2"/>
  <circle cx="125" cy="45" r="7" fill="none" stroke="url(#ringGrad)" stroke-width="2.5"/>
  
  <!-- Ring 3 -->
  <line x1="108" y1="60" x2="118" y2="60" stroke="url(#goldGrad)" stroke-width="2"/>
  <circle cx="125" cy="60" r="7" fill="none" stroke="url(#ringGrad)" stroke-width="2.5"/>
  
  <!-- Ring 4 -->
  <line x1="108" y1="75" x2="118" y2="75" stroke="url(#goldGrad)" stroke-width="2"/>
  <circle cx="125" cy="75" r="7" fill="none" stroke="url(#ringGrad)" stroke-width="2.5"/>
  
  <!-- Ring 5 (middle) -->
  <line x1="108" y1="90" x2="118" y2="90" stroke="url(#goldGrad)" stroke-width="2"/>
  <circle cx="125" cy="90" r="7" fill="none" stroke="url(#ringGrad)" stroke-width="2.5"/>
  
  <!-- Ring 6 -->
  <line x1="108" y1="105" x2="118" y2="105" stroke="url(#goldGrad)" stroke-width="2"/>
  <circle cx="125" cy="105" r="7" fill="none" stroke="url(#ringGrad)" stroke-width="2.5"/>
  
  <!-- Ring 7 -->
  <line x1="108" y1="120" x2="118" y2="120" stroke="url(#goldGrad)" stroke-width="2"/>
  <circle cx="125" cy="120" r="7" fill="none" stroke="url(#ringGrad)" stroke-width="2.5"/>
  
  <!-- Ring 8 -->
  <line x1="108" y1="135" x2="118" y2="135" stroke="url(#goldGrad)" stroke-width="2"/>
  <circle cx="125" cy="135" r="7" fill="none" stroke="url(#ringGrad)" stroke-width="2.5"/>
  
  <!-- Ring 9 -->
  <line x1="108" y1="150" x2="118" y2="150" stroke="url(#goldGrad)" stroke-width="2"/>
  <circle cx="125" cy="150" r="7" fill="none" stroke="url(#ringGrad)" stroke-width="2.5"/>
  
  <!-- Bottom cap -->
  <rect x="88" y="178" width="24" height="8" rx="2"
        fill="url(#goldGrad)" stroke="#B8860B" stroke-width="1"/>
  
  <!-- Bottom spike -->
  <path d="M 100 186 L 95 194 L 100 192 L 105 194 Z" 
        fill="#C0C0C0" stroke="#808080" stroke-width="1"/>
</svg>